<svg id="visual" viewBox="0 0 900 600" width="900" height="600" xmlns="http://www.w3.org/2000/svg" xmlns:xlink="http://www.w3.org/1999/xlink" version="1.1">
<g transform="translate(461.1040202913547 289.5118750144887)">
<path d="M104.8 -126.9C129.9 -103.8 140.3 -65.2 140.7 -29.7C141 5.7 131.4 38 118.9 77.1C106.4 116.1 91 161.9 60.3 178.8C29.5 195.8 -16.5 183.9 -49.8 161.2C-83 138.5 -103.4 105 -122.4 71.1C-141.3 37.3 -158.8 3.1 -162.3 -37.5C-165.7 -78.2 -155.2 -125.3 -125.8 -147.6C-96.4 -169.9 -48.2 -167.5 -4.2 -162.5C39.9 -157.5 79.7 -150 104.8 -126.9" fill="#BB004B">
</path>
</g>
</svg>