<?xml version="1.0" encoding="UTF-8"?>
<!-- Generator: visioncortex VTracer 0.6.3 -->
<svg version="1.1" xmlns="http://www.w3.org/2000/svg" width="1280" height="1280">
<path d="M0 0 C1.23 -0 2.46 -0.01 3.72 -0.01 C5.08 -0.01 6.44 -0 7.8 -0 C9.23 -0 10.66 -0.01 12.09 -0.01 C15.98 -0.01 19.87 -0.01 23.76 -0.01 C27.83 -0 31.9 -0.01 35.96 -0.01 C42.8 -0.01 49.63 -0.01 56.46 -0 C64.36 0 72.26 0 80.16 -0.01 C86.95 -0.01 93.73 -0.01 100.51 -0.01 C104.56 -0.01 108.61 -0.01 112.66 -0.01 C116.47 -0.01 120.28 -0.01 124.09 -0 C125.49 -0 126.89 -0 128.28 -0.01 C130.19 -0.01 132.1 -0 134.01 0 C135.07 0 136.14 0 137.24 0 C139.68 0.11 141.67 0.48 144 1.13 C145.96 1.22 147.92 1.26 149.88 1.27 C151.03 1.29 152.18 1.31 153.37 1.33 C155.76 1.36 158.15 1.38 160.55 1.38 C172.96 1.64 182.01 5.3 190.94 13.92 C193.4 16.55 195.25 18.99 197 22.13 C197.35 22.69 197.7 23.26 198.05 23.84 C201.03 30.99 200.64 41.63 199 49.13 C197.75 52 197.75 52 196 55.13 C195.25 56.65 194.5 58.17 193.75 59.69 C188.04 71.08 181.78 82.12 175.24 93.05 C174.43 94.42 173.62 95.78 172.81 97.15 C171.71 99 170.61 100.85 169.5 102.69 C168.87 103.74 168.25 104.8 167.6 105.88 C166.81 106.99 166.81 106.99 166 108.13 C165.34 108.13 164.68 108.13 164 108.13 C164 109.12 164 110.11 164 111.13 C163.34 111.13 162.68 111.13 162 111.13 C161.54 112.3 161.54 112.3 161.07 113.5 C160 116.13 160 116.13 159 118.13 C158.34 118.13 157.68 118.13 157 118.13 C156.92 118.69 156.83 119.25 156.74 119.82 C155.79 122.81 154.2 124.61 152.19 127 C149.84 129.84 147.59 132.63 145.63 135.75 C145.09 136.54 144.56 137.32 144 138.13 C143.34 138.13 142.68 138.13 142 138.13 C141.76 138.66 141.51 139.2 141.25 139.75 C139.7 142.71 137.97 145.42 136 148.13 C135.34 148.13 134.68 148.13 134 148.13 C133.78 148.66 133.55 149.2 133.32 149.75 C131.55 152.95 129.47 155.42 127 158.13 C126.34 158.13 125.68 158.13 125 158.13 C124.74 158.72 124.47 159.3 124.2 159.91 C122.96 162.21 121.65 163.74 119.82 165.58 C119.2 166.2 118.58 166.82 117.95 167.46 C117.31 168.09 116.66 168.72 116 169.38 C115.36 170.03 114.72 170.68 114.06 171.35 C113.44 171.96 112.83 172.57 112.19 173.21 C111.63 173.77 111.06 174.33 110.48 174.91 C109 176.13 109 176.13 107 176.13 C107 176.79 107 177.45 107 178.13 C105.36 179.82 105.36 179.82 103.19 181.69 C102.48 182.31 101.78 182.93 101.05 183.57 C99 185.13 99 185.13 96 186.13 C96 186.79 96 187.45 96 188.13 C94.54 189.42 94.54 189.42 92.63 190.75 C91.69 191.42 91.69 191.42 90.73 192.1 C89 193.13 89 193.13 87 193.13 C87 193.79 87 194.45 87 195.13 C85.57 196.36 85.57 196.36 83.57 197.73 C82.86 198.22 82.15 198.71 81.41 199.21 C80.28 199.97 80.28 199.97 79.13 200.75 C78.01 201.53 78.01 201.53 76.87 202.31 C71.27 206.13 71.27 206.13 69 206.13 C69 206.79 69 207.45 69 208.13 C68.01 208.13 67.02 208.13 66 208.13 C66 208.79 66 209.45 66 210.13 C47.58 221.11 28.12 230.15 7.44 236 C6.73 236.21 6.01 236.41 5.28 236.62 C0.89 237.8 -3.39 238.49 -7.92 238.89 C-10.05 239.13 -12.05 239.59 -14.12 240.13 C-33.47 244.58 -59.86 244.41 -79 239.13 C-80.58 238.96 -82.16 238.81 -83.75 238.69 C-91.71 237.99 -99.35 235.9 -106.75 232.94 C-109.71 231.87 -112.72 231.08 -115.75 230.25 C-124.04 227.93 -131.82 224.78 -139.5 220.88 C-142.18 219.53 -144.14 218.75 -147 218.13 C-147 217.47 -147 216.81 -147 216.13 C-147.72 216 -148.44 215.88 -149.18 215.75 C-151.95 215.14 -154.39 214.24 -157 213.13 C-157 212.47 -157 211.81 -157 211.13 C-160.48 212.38 -163.06 213.9 -166 216.13 C-166.66 216.13 -167.32 216.13 -168 216.13 C-168 216.79 -168 217.45 -168 218.13 C-170.25 219.93 -172.51 221.6 -174.87 223.25 C-175.52 223.72 -176.17 224.19 -176.84 224.67 C-181.73 228.13 -181.73 228.13 -184 228.13 C-184 228.79 -184 229.45 -184 230.13 C-185.32 230.46 -186.64 230.79 -188 231.13 C-188 231.79 -188 232.45 -188 233.13 C-191.46 236.13 -191.46 236.13 -194 236.13 C-194 236.79 -194 237.45 -194 238.13 C-195.59 239.42 -197.25 240.64 -198.93 241.81 C-203.49 245.03 -207.89 248.37 -212.22 251.88 C-214 253.13 -214 253.13 -216 253.13 C-216.33 254.12 -216.66 255.11 -217 256.13 C-218.99 257.95 -218.99 257.95 -221.43 259.81 C-222.24 260.44 -223.04 261.06 -223.87 261.7 C-226 263.13 -226 263.13 -228 263.13 C-228.33 264.12 -228.66 265.11 -229 266.13 C-231 267.92 -231 267.92 -233.56 269.88 C-237.67 273.06 -241.58 276.36 -245.4 279.88 C-247 281.13 -247 281.13 -249 281.13 C-249 281.79 -249 282.45 -249 283.13 C-250.71 284.71 -252.49 286.22 -254.31 287.69 C-255.3 288.5 -256.28 289.3 -257.3 290.13 C-260 292.13 -260 292.13 -263 293.13 C-263.33 294.12 -263.66 295.11 -264 296.13 C-264.66 296.13 -265.32 296.13 -266 296.13 C-266 296.79 -266 297.45 -266 298.13 C-271.47 303.13 -271.47 303.13 -274 303.13 C-274 303.79 -274 304.45 -274 305.13 C-275.46 306.63 -275.46 306.63 -277.37 308.25 C-278.31 309.06 -278.31 309.06 -279.27 309.88 C-281 311.13 -281 311.13 -283 311.13 C-283 311.79 -283 312.45 -283 313.13 C-284.64 314.75 -284.64 314.75 -286.81 316.56 C-289.82 319.1 -289.82 319.1 -292.63 321.85 C-294 323.13 -294 323.13 -296 323.13 C-296.26 323.77 -296.53 324.41 -296.81 325.06 C-298 327.13 -298 327.13 -301 328.13 C-301 328.79 -301 329.45 -301 330.13 C-302.37 331.75 -302.37 331.75 -304 333.13 C-304.66 333.13 -305.32 333.13 -306 333.13 C-306 333.79 -306 334.45 -306 335.13 C-307.22 336.33 -307.22 336.33 -309.06 337.83 C-315.36 343.18 -321.11 349.09 -326.94 354.94 C-328.95 356.96 -330.97 358.97 -332.99 360.98 C-334.27 362.27 -335.56 363.55 -336.84 364.83 C-337.74 365.74 -337.74 365.74 -338.67 366.66 C-341.7 369.61 -341.7 369.61 -344 373.13 C-344.66 373.13 -345.32 373.13 -346 373.13 C-346 373.79 -346 374.45 -346 375.13 C-347.37 376.75 -347.37 376.75 -349 378.13 C-349.66 378.13 -350.32 378.13 -351 378.13 C-350.67 378.79 -350.34 379.45 -350 380.13 C-348.99 379.67 -347.98 379.22 -346.93 378.75 C-343.36 377.22 -339.74 376.18 -336 375.13 C-334.66 374.64 -333.33 374.14 -332 373.63 C-328.38 372.24 -324.73 371.16 -321 370.13 C-319.33 369.61 -317.66 369.09 -316 368.56 C-312.01 367.35 -308.13 366.69 -304 366.13 C-303.27 365.82 -302.54 365.51 -301.79 365.19 C-298.31 363.86 -294.78 363.25 -291.12 362.63 C-285.97 361.74 -281.02 360.63 -276 359.13 C-270.23 357.61 -264.62 356.87 -258.68 356.41 C-256.22 356.15 -253.95 355.72 -251.56 355.13 C-246.94 354 -242.34 353.67 -237.6 353.37 C-234.89 353.22 -234.89 353.22 -232 352.13 C-230.54 352 -229.07 351.93 -227.61 351.88 C-226.75 351.85 -225.9 351.82 -225.01 351.78 C-223.23 351.72 -221.45 351.66 -219.66 351.61 C-214.18 351.39 -209.14 351.13 -204 349.13 C-202.3 346.29 -202.3 346.29 -201.62 342.69 C-199.79 335.86 -197.05 329.9 -193.68 323.69 C-193.23 322.84 -192.77 322 -192.3 321.12 C-191.21 319.12 -190.11 317.12 -189 315.13 C-188.34 315.13 -187.68 315.13 -187 315.13 C-187 314.14 -187 313.15 -187 312.13 C-186.34 312.13 -185.68 312.13 -185 312.13 C-184.75 311.41 -184.5 310.68 -184.25 309.94 C-182.87 306.85 -181.27 304.62 -179 302.13 C-178.34 302.13 -177.68 302.13 -177 302.13 C-176.79 301.59 -176.58 301.05 -176.37 300.5 C-174.46 297.21 -171.95 294.53 -169 292.13 C-168.34 292.13 -167.68 292.13 -167 292.13 C-166.67 291.14 -166.34 290.15 -166 289.13 C-165.34 289.13 -164.68 289.13 -164 289.13 C-164 288.47 -164 287.81 -164 287.13 C-161.95 285.44 -159.91 283.9 -157.75 282.38 C-157.12 281.93 -156.48 281.48 -155.83 281.02 C-151.04 277.69 -146.12 274.94 -140.81 272.48 C-137.87 271.12 -137.87 271.12 -134.69 269.16 C-130.76 266.88 -126.67 265.44 -122.37 264 C-120.9 263.5 -119.43 263 -117.96 262.49 C-117.27 262.26 -116.58 262.02 -115.86 261.78 C-114.36 261.26 -112.88 260.67 -111.41 260.07 C-105.93 257.92 -100.27 256.71 -94.5 255.63 C-93.25 255.39 -92 255.15 -90.72 254.91 C-89.14 254.64 -87.57 254.38 -86 254.13 C-84.98 253.95 -83.97 253.78 -82.92 253.6 C-72.36 251.97 -61.93 251.79 -51.26 251.81 C-48.27 251.81 -45.28 251.79 -42.29 251.77 C-29.91 251.72 -18.14 252.74 -6 255.13 C-5.01 255.32 -4.01 255.51 -2.99 255.7 C-0.8 256.14 1.38 256.62 3.57 257.13 C4.31 257.3 5.05 257.47 5.82 257.65 C15 259.79 23.25 262.52 31.79 266.6 C34.63 267.95 37.49 269.2 40.38 270.44 C45.16 272.61 49.67 275.15 54.19 277.81 C54.86 278.21 55.54 278.6 56.23 279.01 C57.86 279.99 59.44 281.05 61 282.13 C61 282.79 61 283.45 61 284.13 C61.62 284.44 62.24 284.75 62.88 285.06 C64.25 285.75 65.63 286.44 67 287.13 C67 287.79 67 288.45 67 289.13 C67.54 289.34 68.09 289.56 68.64 289.78 C71.82 291.59 74.21 294.04 76.75 296.63 C77.26 297.13 77.77 297.62 78.29 298.14 C82 301.87 82 301.87 82 304.13 C82.66 304.13 83.32 304.13 84 304.13 C85.65 306.09 87.15 308.04 88.63 310.13 C89.07 310.75 89.52 311.38 89.97 312.03 C111.03 342.57 115.46 379.23 109 415.13 C107.82 420.13 106.02 424.78 104.06 429.53 C103.38 431.2 102.73 432.88 102.1 434.57 C98.37 444.55 92.76 454.84 86 463.13 C85.34 463.13 84.68 463.13 84 463.13 C83.6 463.99 83.6 463.99 83.19 464.88 C81.97 467.18 80.7 469.15 79 471.13 C78.34 471.13 77.68 471.13 77 471.13 C77 471.79 77 472.45 77 473.13 C75.63 474.75 75.63 474.75 74 476.13 C73.34 476.13 72.68 476.13 72 476.13 C72 476.79 72 477.45 72 478.13 C66.53 483.13 66.53 483.13 64 483.13 C64 483.79 64 484.45 64 485.13 C61.95 486.64 61.95 486.64 59.13 488.38 C58.12 489 57.11 489.62 56.08 490.26 C55.06 490.88 54.05 491.49 53 492.13 C51.71 492.93 51.71 492.93 50.4 493.74 C41.84 499 33.41 503.18 23.82 506.22 C21.44 506.99 19.14 507.83 16.82 508.75 C13.21 510.14 9.57 510.96 5.79 511.7 C3.99 511.97 3.99 511.97 3 513.13 C-0.26 513.86 -3.58 514.31 -6.89 514.8 C-8.36 515.03 -9.82 515.27 -11.29 515.51 C-32.67 519.09 -69.85 524.2 -90 514.13 C-91.35 513.96 -92.7 513.82 -94.06 513.71 C-98.89 513.21 -103.4 512.14 -108.06 510.81 C-109.19 510.51 -109.19 510.51 -110.33 510.21 C-114.94 508.92 -119.03 507.23 -123.26 505.01 C-125.23 504.01 -127.18 503.34 -129.31 502.75 C-142.9 498.42 -155.16 489.13 -166 480.13 C-166.64 479.62 -167.29 479.11 -167.95 478.58 C-169.34 477.48 -170.68 476.31 -172 475.13 C-172 474.47 -172 473.81 -172 473.13 C-172.66 473.13 -173.32 473.13 -174 473.13 C-185.72 460.57 -195.71 445.5 -201 429.13 C-201.39 428.01 -201.39 428.01 -201.8 426.86 C-202.58 424.63 -203.3 422.39 -204 420.13 C-204.27 419.26 -204.54 418.39 -204.81 417.5 C-207.27 408.77 -207.69 400.14 -208 391.13 C-209.05 391.26 -210.1 391.39 -211.19 391.53 C-218.46 392.43 -225.68 393.22 -233 393.63 C-237.81 393.91 -242.27 394.46 -246.93 395.65 C-249.98 396.35 -253.04 396.61 -256.15 396.88 C-258.09 397.04 -258.09 397.04 -260 398.13 C-261.78 398.45 -263.58 398.73 -265.37 399 C-270.73 399.86 -275.93 401.04 -281.18 402.4 C-285.84 403.6 -290.53 404.62 -295.24 405.59 C-299.76 406.54 -304.05 407.76 -308.41 409.28 C-311.58 410.32 -314.78 411.18 -318 412.06 C-322.7 413.39 -327.05 414.89 -331.45 416.99 C-335.57 418.83 -339.82 420.32 -344.06 421.85 C-348.9 423.61 -353.43 425.76 -358 428.13 C-359.33 428.8 -360.66 429.46 -362 430.13 C-362.99 430.62 -362.99 430.62 -364 431.13 C-370 434.13 -370 434.13 -371.98 435.12 C-373.37 435.81 -374.76 436.52 -376.14 437.23 C-376.83 437.59 -377.53 437.95 -378.25 438.31 C-378.87 438.64 -379.49 438.96 -380.14 439.29 C-382.07 440.16 -383.93 440.67 -386 441.13 C-386 441.79 -386 442.45 -386 443.13 C-386.67 443.48 -387.35 443.83 -388.05 444.19 C-394.03 447.36 -399.56 450.79 -405 454.81 C-407 456.13 -407 456.13 -409 456.13 C-409 456.79 -409 457.45 -409 458.13 C-410.65 459.46 -412.38 460.72 -414.12 461.94 C-417.37 464.24 -420.56 466.51 -423.56 469.13 C-426 471.13 -426 471.13 -428 471.13 C-428 471.79 -428 472.45 -428 473.13 C-429.43 474.54 -429.43 474.54 -431.43 476.19 C-439.73 482.82 -439.73 482.82 -446 491.13 C-446.66 491.13 -447.32 491.13 -448 491.13 C-448.24 491.66 -448.49 492.2 -448.75 492.75 C-450.3 495.71 -452.03 498.42 -454 501.13 C-454.66 501.13 -455.32 501.13 -456 501.13 C-456.18 502.02 -456.18 502.02 -456.37 502.94 C-457 505.13 -457 505.13 -459 508.13 C-459.66 508.13 -460.32 508.13 -461 508.13 C-461.32 509.12 -461.32 509.12 -461.65 510.14 C-463.45 514.13 -465.9 517.43 -468.5 520.94 C-469 521.63 -469.49 522.33 -470.01 523.04 C-470.49 523.69 -470.97 524.35 -471.47 525.02 C-472.12 525.92 -472.12 525.92 -472.79 526.83 C-473.19 527.26 -473.59 527.69 -474 528.13 C-474.66 528.13 -475.32 528.13 -476 528.13 C-476 529.12 -476 530.11 -476 531.13 C-476.66 531.13 -477.32 531.13 -478 531.13 C-478.31 531.91 -478.62 532.69 -478.93 533.5 C-480 536.13 -480 536.13 -481 538.13 C-481.66 538.13 -482.32 538.13 -483 538.13 C-483.31 538.91 -483.62 539.69 -483.93 540.5 C-485 543.13 -485 543.13 -486 545.13 C-486.66 545.13 -487.32 545.13 -488 545.13 C-488.26 545.86 -488.53 546.59 -488.81 547.35 C-489.97 550.07 -491.29 552.2 -493.01 554.6 C-493.89 555.85 -493.89 555.85 -494.8 557.12 C-495.42 557.99 -496.04 558.86 -496.68 559.75 C-501.16 566.05 -505.55 572.34 -509.57 578.94 C-511 581.13 -511 581.13 -512.93 583.47 C-514.84 585.92 -516.35 588.41 -517.85 591.12 C-520.2 595.24 -522.82 599.2 -525.37 603.19 C-525.98 604.14 -526.59 605.1 -527.21 606.08 C-530.41 611.08 -533.61 616.08 -536.82 621.07 C-537.43 622.04 -538.05 623 -538.69 623.99 C-539.86 625.81 -541.03 627.63 -542.2 629.45 C-545.6 634.76 -548.69 640.15 -551.67 645.7 C-553.15 648.41 -554.78 651 -556.5 653.56 C-559.58 658.32 -562.1 663.22 -564.57 668.31 C-566.48 672.09 -568.68 675.59 -571 679.13 C-570.17 678.67 -569.35 678.21 -568.5 677.74 C-562.55 674.46 -556.66 671.42 -550.29 669.01 C-548.14 668.18 -546.08 667.24 -544 666.25 C-538.7 663.85 -533.17 662.12 -527.64 660.32 C-522.71 658.72 -517.85 656.97 -513 655.13 C-507.64 653.17 -502.67 651.89 -497 651.13 C-495.32 650.5 -493.65 649.83 -492 649.13 C-488.21 647.94 -484.45 647 -480.56 646.25 C-478.7 645.88 -476.85 645.51 -475 645.13 C-473.79 644.88 -472.57 644.64 -471.32 644.39 C-461.16 642.21 -452.88 638.44 -444 633.13 C-443.16 632.63 -442.33 632.13 -441.47 631.62 C-437.9 629.48 -434.33 627.34 -430.78 625.16 C-429.57 624.42 -429.57 624.42 -428.33 623.67 C-427.62 623.22 -426.9 622.78 -426.16 622.33 C-423.84 621.04 -421.48 620.07 -419 619.13 C-419 618.47 -419 617.81 -419 617.13 C-418.02 616.59 -417.04 616.06 -416.03 615.51 C-411.63 612.99 -407.58 610.06 -403.5 607.06 C-402.72 606.5 -401.94 605.94 -401.14 605.35 C-397.27 602.53 -393.41 599.69 -389.56 596.83 C-388.53 596.07 -388.53 596.07 -387.48 595.29 C-386.18 594.32 -384.88 593.35 -383.59 592.38 C-379.22 589.13 -379.22 589.13 -377 589.13 C-377 588.47 -377 587.81 -377 587.13 C-375.26 585.68 -373.46 584.32 -371.62 583 C-370.62 582.28 -369.63 581.55 -368.6 580.81 C-366 579.13 -366 579.13 -364 579.13 C-364 578.47 -364 577.81 -364 577.13 C-362.61 575.93 -362.61 575.93 -360.66 574.59 C-359.95 574.09 -359.24 573.6 -358.51 573.09 C-357.74 572.57 -356.98 572.04 -356.18 571.5 C-354.61 570.41 -353.04 569.33 -351.47 568.24 C-350.7 567.7 -349.93 567.17 -349.14 566.63 C-346.42 564.72 -343.77 562.74 -341.12 560.75 C-336.87 557.64 -332.48 555.07 -327.82 552.63 C-324.8 551.02 -321.87 549.31 -318.93 547.56 C-310.55 542.65 -302.05 538.64 -293 535.13 C-290.39 534.09 -287.79 533.05 -285.18 532 C-283.93 531.5 -282.67 531 -281.41 530.49 C-279.36 529.67 -277.3 528.84 -275.25 528.01 C-272.22 526.82 -269.13 526 -266 525.13 C-264.37 524.63 -262.75 524.13 -261.12 523.63 C-257.24 522.46 -253.37 521.49 -249.4 520.66 C-246.62 520.04 -243.88 519.3 -241.12 518.56 C-236.35 517.35 -231.77 516.69 -226.86 516.44 C-224.42 516.17 -222.23 515.74 -219.86 515.17 C-214.58 513.96 -209.32 513.43 -203.93 513 C-202.38 512.88 -202.38 512.88 -200.8 512.75 C-159.95 509.73 -159.95 509.73 -149.43 516.75 C-144.61 520.94 -142.22 525.96 -141.06 532.19 C-140.97 538.09 -142.89 541.57 -146.25 546.31 C-151.93 552.13 -156.36 553.57 -164.31 553.68 C-165.36 553.68 -166.41 553.67 -167.49 553.67 C-169.13 553.68 -169.13 553.68 -170.81 553.7 C-174.31 553.74 -177.81 553.75 -181.31 553.75 C-184.8 553.77 -188.29 553.79 -191.77 553.82 C-193.94 553.84 -196.1 553.85 -198.27 553.85 C-203.98 553.89 -209.25 554.37 -214.82 555.66 C-216.94 556.11 -218.97 556.35 -221.12 556.5 C-226.86 557.07 -232.37 558.64 -237.93 560.09 C-241.56 561.03 -245.21 561.84 -248.87 562.63 C-253.55 563.7 -257.83 565.09 -262.23 566.97 C-264.97 568.12 -267.74 569.13 -270.53 570.14 C-282.46 574.47 -294.52 579.27 -304.88 586.69 C-308.23 588.97 -311.82 590.77 -315.42 592.63 C-318.18 594.23 -320.55 596.08 -323 598.13 C-312.77 597.14 -312.77 597.14 -302.75 595.06 C-298.37 593.97 -294.13 593.66 -289.63 593.37 C-286.89 593.22 -286.89 593.22 -284 592.13 C-282.59 591.99 -281.17 591.9 -279.76 591.85 C-278.53 591.79 -278.53 591.79 -277.27 591.73 C-276.42 591.7 -275.56 591.66 -274.68 591.63 C-268.36 591.4 -268.36 591.4 -262.08 590.63 C-257.39 589.86 -252.68 589.75 -247.93 589.56 C-246.38 589.5 -246.38 589.5 -244.8 589.44 C-233.66 589.01 -222.63 589.1 -211.5 589.56 C-210.54 589.6 -209.58 589.64 -208.6 589.68 C-207.69 589.73 -206.78 589.77 -205.84 589.81 C-205.03 589.85 -204.22 589.88 -203.38 589.92 C-200.86 590.14 -198.47 590.63 -196 591.13 C-194.55 591.25 -193.09 591.35 -191.64 591.41 C-190.46 591.46 -190.46 591.46 -189.26 591.52 C-187.61 591.59 -185.97 591.66 -184.33 591.73 C-178.2 592.02 -178.2 592.02 -176 593.13 C-173.5 593.49 -171 593.83 -168.5 594.13 C-161.27 594.99 -161.27 594.99 -159 596.13 C-157.08 596.31 -157.08 596.31 -155.12 596.5 C-140.11 598.02 -140.11 598.02 -137 601.13 C-136.03 601.23 -135.06 601.33 -134.06 601.44 C-129.99 601.97 -126.56 603.44 -122.79 605.03 C-119.77 606.22 -116.74 607.15 -113.62 608.06 C-87.73 615.89 -63.15 630.73 -41.78 647.01 C-38.67 649.38 -35.51 651.67 -32.32 653.94 C-31.89 654.33 -31.45 654.72 -31 655.13 C-31 655.79 -31 656.45 -31 657.13 C-30.41 657.38 -29.83 657.64 -29.22 657.9 C-26.8 659.23 -25.26 660.69 -23.37 662.69 C-20.95 665.27 -20.95 665.27 -18 667.13 C-18 667.79 -18 668.45 -18 669.13 C-17.34 669.13 -16.68 669.13 -16 669.13 C-14.38 670.77 -14.38 670.77 -12.56 672.94 C-10.02 675.95 -10.02 675.95 -7.27 678.76 C-6 680.13 -6 680.13 -6 682.13 C-5.34 682.13 -4.68 682.13 -4 682.13 C-2.75 683.43 -2.75 683.43 -1.34 685.28 C-0.82 685.97 -0.3 686.65 0.24 687.36 C0.8 688.11 1.36 688.86 1.94 689.63 C2.81 690.77 2.81 690.77 3.69 691.94 C11.17 701.91 18.43 712.08 24.69 722.87 C25.57 724.38 26.48 725.88 27.41 727.36 C31.56 733.96 34.82 740.9 38.07 747.98 C39.36 750.79 40.71 753.56 42.11 756.31 C43.63 759.33 44.97 762.35 46.19 765.5 C47.49 768.86 47.49 768.86 49 772.13 C49.7 779.17 50.04 785.65 45.6 791.47 C40.7 796.55 36.64 798.44 29.5 798.75 C23.5 798.49 19.34 797.37 15 793.13 C11.33 788.67 9.32 783.62 7.28 778.28 C0.89 762.55 -7.18 747.67 -16.55 733.53 C-18 731.13 -19.03 728.76 -20 726.13 C-20.66 726.13 -21.32 726.13 -22 726.13 C-23.44 724.39 -24.81 722.59 -26.12 720.75 C-26.85 719.75 -27.57 718.76 -28.32 717.73 C-30 715.13 -30 715.13 -30 713.13 C-30.66 713.13 -31.32 713.13 -32 713.13 C-37 707.65 -37 707.65 -37 705.13 C-37.66 705.13 -38.32 705.13 -39 705.13 C-40.44 703.62 -40.44 703.62 -42.12 701.56 C-45.29 697.81 -48.69 694.67 -52.49 691.57 C-52.99 691.1 -53.49 690.62 -54 690.13 C-54 689.47 -54 688.81 -54 688.13 C-54.57 687.86 -55.15 687.59 -55.75 687.31 C-58.05 686.1 -60.02 684.82 -62 683.13 C-62 682.47 -62 681.81 -62 681.13 C-62.52 680.9 -63.04 680.67 -63.57 680.43 C-67.5 678.32 -71.01 675.58 -74.6 672.94 C-78.6 670.03 -82.67 667.53 -87 665.13 C-88.56 664.17 -90.12 663.22 -91.68 662.25 C-97.29 658.87 -103.11 655.98 -109 653.13 C-108.05 658.59 -106.92 663.72 -104.84 668.87 C-103.76 671.75 -102.93 674.68 -102.06 677.63 C-100.71 682.1 -99.21 686.17 -96.93 690.25 C-96 692.13 -96 692.13 -95.07 694.93 C-93.52 699.54 -91.35 703.82 -89.24 708.2 C-88 711.13 -88 711.13 -88 714.13 C-87.34 714.13 -86.68 714.13 -86 714.13 C-85.16 715.73 -84.32 717.33 -83.5 718.94 C-83.03 719.83 -82.57 720.73 -82.09 721.65 C-81 724.13 -81 724.13 -81 727.13 C-80.34 727.13 -79.68 727.13 -79 727.13 C-77.52 729.23 -76.18 731.3 -74.87 733.5 C-74.31 734.41 -74.31 734.41 -73.74 735.33 C-71 739.86 -71 739.86 -71 742.13 C-70.34 742.13 -69.68 742.13 -69 742.13 C-66.7 744.69 -66 745.61 -66 749.13 C-65.34 749.13 -64.68 749.13 -64 749.13 C-60.44 754.62 -60.08 759.79 -61 766.13 C-62.98 772.08 -66.23 776.25 -71.76 779.25 C-77.5 781.5 -82.82 781.83 -88.62 779.69 C-90.29 778.92 -90.29 778.92 -92 778.13 C-92 777.47 -92 776.81 -92 776.13 C-92.57 775.9 -93.14 775.67 -93.74 775.43 C-96.59 773.79 -98.15 771.83 -100.18 769.25 C-101.23 767.96 -101.23 767.96 -102.29 766.63 C-103.85 764.34 -104.58 762.83 -105 760.13 C-105.66 760.13 -106.32 760.13 -107 760.13 C-108.51 757.85 -108.51 757.85 -110.25 754.75 C-113.03 749.82 -115.92 744.98 -118.93 740.19 C-120 738.13 -120 738.13 -120 735.13 C-120.66 735.13 -121.32 735.13 -122 735.13 C-122.24 734.49 -122.48 733.85 -122.73 733.19 C-125.03 727.25 -125.03 727.25 -128 721.63 C-130.55 717.34 -132.24 712.78 -134 708.13 C-134.49 706.84 -134.98 705.56 -135.48 704.28 C-138 697.69 -140.42 691.13 -142.36 684.34 C-142.99 682.14 -143.7 679.98 -144.43 677.81 C-147.55 668.53 -150.32 659.21 -152.6 649.68 C-153.05 647.83 -153.52 645.98 -154 644.13 C-154.21 643.03 -154.43 641.93 -154.65 640.8 C-155.81 637.79 -155.81 637.79 -159.27 636.7 C-160.63 636.38 -162 636.08 -163.37 635.81 C-164.09 635.66 -164.8 635.5 -165.53 635.33 C-170.87 634.2 -176.19 633.57 -181.64 633.3 C-184 633.13 -184 633.13 -187 632.13 C-189.25 631.91 -191.51 631.74 -193.77 631.59 C-194.44 631.55 -195.11 631.51 -195.8 631.46 C-197.99 631.32 -200.18 631.19 -202.37 631.06 C-203.5 631 -203.5 631 -204.65 630.93 C-222.89 629.87 -240.82 630.02 -259.06 631.06 C-259.82 631.11 -260.58 631.15 -261.37 631.2 C-263.55 631.32 -265.73 631.46 -267.91 631.59 C-269.18 631.67 -270.45 631.75 -271.75 631.83 C-274.32 632.07 -276.53 632.45 -279 633.13 C-281.22 633.3 -283.45 633.44 -285.68 633.56 C-290.59 633.88 -295.14 634.45 -299.9 635.65 C-302.95 636.34 -306.03 636.61 -309.15 636.88 C-311.09 637.04 -311.09 637.04 -313 638.13 C-315.43 638.4 -317.86 638.57 -320.29 638.75 C-323.05 639.05 -323.05 639.05 -325.79 640.07 C-330.38 641.58 -335.04 642.23 -339.81 642.98 C-343.81 643.65 -347.23 644.57 -351 646.13 C-354.53 646.94 -358.07 647.64 -361.62 648.35 C-364.6 649.04 -367.2 649.91 -370 651.13 C-373.15 652.29 -375.9 653.12 -379.25 653.5 C-383.3 654.18 -386.59 655.49 -390.35 657.07 C-394.48 658.72 -398.72 659.93 -403 661.13 C-399.19 663.44 -395.32 665.63 -391.43 667.81 C-384.74 671.62 -378.33 675.74 -372 680.13 C-371.38 680.55 -370.76 680.98 -370.12 681.42 C-368.15 682.77 -366.2 684.14 -364.25 685.5 C-363.31 686.15 -363.31 686.15 -362.36 686.8 C-360.87 687.86 -359.43 688.99 -358 690.13 C-358 690.79 -358 691.45 -358 692.13 C-357.32 692.33 -356.64 692.54 -355.93 692.75 C-352.08 694.56 -348.92 697.03 -346 700.13 C-346 700.79 -346 701.45 -346 702.13 C-345.42 702.4 -344.84 702.66 -344.25 702.94 C-341.94 704.16 -339.98 705.43 -338 707.13 C-338 707.79 -338 708.45 -338 709.13 C-335.75 710.54 -334.46 711.17 -331.79 710.92 C-328.24 709.91 -325.24 708.19 -322.06 706.38 C-311.32 700.46 -299.99 696.65 -288 694.13 C-287.21 693.96 -286.42 693.79 -285.61 693.61 C-278.64 692.21 -271.92 691.78 -264.81 691.81 C-263.72 691.82 -262.62 691.82 -261.5 691.83 C-238.41 692.16 -218.68 700.72 -199 712.13 C-199 712.79 -199 713.45 -199 714.13 C-198.46 714.37 -197.92 714.62 -197.37 714.88 C-194.41 716.43 -191.7 718.16 -189 720.13 C-189 720.79 -189 721.45 -189 722.13 C-188.41 722.39 -187.81 722.66 -187.2 722.94 C-180.52 726.55 -175.16 733.92 -171 740.13 C-171 740.79 -171 741.45 -171 742.13 C-170.34 742.13 -169.68 742.13 -169 742.13 C-163.67 749.52 -159.36 757.67 -156 766.13 C-155.56 767.2 -155.13 768.27 -154.69 769.37 C-146.54 791.46 -146.61 814.45 -152 837.13 C-135.57 837.28 -119.81 837.2 -103.73 833.57 C-98.68 832.44 -93.77 831.67 -88.59 831.36 C-86.07 831.13 -83.7 830.71 -81.22 830.17 C-51.42 824.07 -17.89 825.33 12 830.13 C13.04 830.29 14.08 830.45 15.14 830.62 C20.22 831.44 25.22 832.31 30.19 833.63 C33.66 834.53 37.11 835.37 40.63 836.06 C44.79 836.96 48.56 838.49 52.48 840.13 C54.89 841.08 57.26 841.81 59.75 842.5 C65.31 844.1 70.52 846.4 75.8 848.72 C78.52 849.91 81.24 851.05 84 852.13 C84 852.79 84 853.45 84 854.13 C84.74 854.25 85.48 854.37 86.25 854.49 C94.49 856.38 102.01 862.59 109 867.13 C109.03 865.54 109.05 863.96 109.07 862.38 C109.08 861.5 109.09 860.61 109.1 859.71 C109.1 857.22 109.1 857.22 108.53 855.25 C107.48 850.99 107.59 846.51 107.38 842.15 C107.12 838.49 106.36 835.05 105.51 831.49 C104.62 827.35 104.16 823.14 103.63 818.94 C102.62 811.36 101.13 804.32 98.85 797.02 C98.11 794.49 97.65 792.18 97.38 789.56 C97.02 786.26 96.24 784.17 95 781.13 C94.38 779.01 93.77 776.88 93.19 774.75 C83.89 741.93 70.03 710.57 51.18 682.13 C50 680.13 50 680.13 50 678.13 C49.34 678.13 48.68 678.13 48 678.13 C44.13 671.5 44.13 671.5 43 668.13 C42.34 668.13 41.68 668.13 41 668.13 C40.04 666.73 39.09 665.32 38.18 663.88 C35.73 660.23 32.7 657.02 29.81 653.72 C27.63 651.2 26.07 649.32 25 646.13 C24.34 646.13 23.68 646.13 23 646.13 C21.59 644.69 21.59 644.69 19.94 642.69 C13.32 634.4 13.32 634.4 5 628.13 C5 627.47 5 626.81 5 626.13 C4.46 625.89 3.92 625.65 3.36 625.41 C0.37 623.78 -2.11 621.78 -4.75 619.63 C-6.22 618.44 -6.22 618.44 -7.73 617.22 C-8.85 616.18 -8.85 616.18 -10 615.13 C-10 614.47 -10 613.81 -10 613.13 C-11.01 612.8 -11.01 612.8 -12.04 612.47 C-15.92 610.71 -18.97 608.25 -22.31 605.63 C-33.06 597.4 -44.24 590.22 -56.46 584.36 C-58.59 583.33 -60.6 582.22 -62.62 581 C-66.07 579.09 -69.5 577.69 -73.16 576.27 C-77.59 574.48 -81.89 572.43 -86.21 570.4 C-88.99 569.07 -88.99 569.07 -92 568.13 C-92 567.47 -92 566.81 -92 566.13 C-92.99 565.8 -93.98 565.47 -95 565.13 C-95 564.47 -95 563.81 -95 563.13 C-95.66 563.13 -96.32 563.13 -97 563.13 C-100.76 557.48 -100.78 551.76 -100 545.13 C-98.29 539.61 -93.98 534.94 -89 532.13 C-80.88 530.03 -73.43 531.13 -66.13 535.04 C-63.96 536.15 -61.78 537.02 -59.5 537.88 C-48.09 542.36 -37.34 548.36 -26.79 554.56 C-24.04 556.22 -24.04 556.22 -21 557.13 C-21 557.79 -21 558.45 -21 559.13 C-20.43 559.24 -19.87 559.34 -19.29 559.46 C-4.37 563.83 11.08 579 22.6 589.08 C24.82 591.13 24.82 591.13 27 592.13 C27 592.79 27 593.45 27 594.13 C27.56 594.37 28.12 594.62 28.69 594.88 C31.43 596.36 33.68 598.06 36 600.13 C36 600.79 36 601.45 36 602.13 C36.99 602.46 37.98 602.79 39 603.13 C39 603.79 39 604.45 39 605.13 C39.66 605.13 40.32 605.13 41 605.13 C41 605.79 41 606.45 41 607.13 C41.99 607.46 42.98 607.79 44 608.13 C44 608.79 44 609.45 44 610.13 C44.66 610.13 45.32 610.13 46 610.13 C47.34 611.46 47.34 611.46 48.94 613.38 C51.62 616.53 54.35 619.6 57.17 622.63 C69 635.33 69 635.33 69 639.13 C69.66 639.13 70.32 639.13 71 639.13 C73 641.56 74.86 644 76.69 646.56 C77.26 647.36 77.83 648.15 78.41 648.96 C107 689.52 107 689.52 107 700.13 C107.66 700.13 108.32 700.13 109 700.13 C109.22 700.7 109.44 701.27 109.67 701.86 C111.61 706.83 113.71 711.68 116 716.5 C118.38 721.57 120.3 726.63 121.95 731.98 C122.84 734.65 123.85 737.2 124.92 739.8 C127.09 745.16 128.68 750.61 130.19 756.19 C130.7 758.06 131.22 759.92 131.73 761.79 C132.06 763 132.06 763 132.4 764.24 C132.84 766.12 132.84 766.12 134 767.13 C134.15 768.2 134.29 769.27 134.44 770.38 C134.82 773.95 134.82 773.95 135.94 776.4 C137.24 779.73 137.85 783 138.5 786.5 C139.44 791.48 140.58 796.27 142 801.13 C143.47 807.23 144.23 813.24 144.73 819.49 C144.98 821.86 145.38 824.06 145.94 826.38 C148.46 837 149.23 847.82 149.66 858.69 C149.82 862.62 150.17 866.27 151 870.13 C151.84 881.85 149.46 890.83 142 900.13 C141.01 900.46 140.02 900.79 139 901.13 C139 901.79 139 902.45 139 903.13 C130.38 910.13 121.28 912.85 110.14 911.88 C100.68 910.41 92.44 906.15 85 900.13 C85 899.47 85 898.81 85 898.13 C84.14 897.94 84.14 897.94 83.27 897.76 C80.9 897.1 78.93 896.19 76.75 895.06 C76.05 894.7 75.34 894.34 74.61 893.97 C73.82 893.55 73.82 893.55 73 893.13 C73 892.47 73 891.81 73 891.13 C72.28 891 71.56 890.88 70.82 890.75 C68.05 890.14 65.61 889.24 63 888.13 C63 887.47 63 886.81 63 886.13 C62.22 886.04 61.44 885.96 60.63 885.88 C55.24 884.76 50 882.77 45.17 880.12 C42.06 878.7 38.81 877.98 35.5 877.19 C34.05 876.84 32.6 876.49 31.16 876.13 C30.45 875.96 29.73 875.79 29 875.62 C26.35 874.97 23.71 874.26 21.07 873.56 C7.45 870.22 -5.76 868.61 -19.75 868.38 C-20.54 868.36 -21.33 868.34 -22.15 868.33 C-44.25 867.86 -66.21 868.03 -88 872.13 C-88.68 872.25 -89.36 872.38 -90.06 872.51 C-92.04 872.88 -94.02 873.25 -96 873.63 C-97.98 874 -99.97 874.37 -101.96 874.74 C-103.33 875 -104.7 875.27 -106.07 875.55 C-118.09 877.98 -129.9 878.4 -142.12 878.38 C-143.26 878.38 -143.26 878.38 -144.43 878.37 C-152.67 878.35 -160.8 878.13 -169 877.13 C-169.48 877.92 -169.96 878.72 -170.46 879.53 C-171.09 880.55 -171.72 881.58 -172.37 882.63 C-173 883.65 -173.62 884.67 -174.27 885.72 C-174.84 886.51 -175.41 887.31 -176 888.13 C-176.66 888.13 -177.32 888.13 -178 888.13 C-178.2 888.79 -178.41 889.45 -178.62 890.13 C-180.49 894.2 -182.97 897.81 -186 901.13 C-186.66 901.13 -187.32 901.13 -188 901.13 C-188.26 901.71 -188.53 902.3 -188.81 902.9 C-192.9 910.57 -200.59 917.41 -207 923.13 C-207.66 923.13 -208.32 923.13 -209 923.13 C-209 923.79 -209 924.45 -209 925.13 C-210.86 926.82 -210.86 926.82 -213.31 928.69 C-214.11 929.31 -214.91 929.93 -215.74 930.57 C-218 932.13 -218 932.13 -221 933.13 C-221 933.79 -221 934.45 -221 935.13 C-222.68 936.32 -224.42 937.43 -226.18 938.5 C-230.02 940.83 -233.5 943.32 -237 946.13 C-238.51 947.08 -240.05 948 -241.62 948.88 C-242.75 949.52 -242.75 949.52 -243.91 950.17 C-246 951.13 -246 951.13 -249 951.13 C-249 951.79 -249 952.45 -249 953.13 C-251.37 954.08 -253.75 955.03 -256.13 955.98 C-257.98 956.72 -259.83 957.46 -261.68 958.21 C-274.02 963.2 -285.77 965.57 -299 967.13 C-299.75 967.23 -300.51 967.34 -301.29 967.45 C-307.9 968.28 -314.03 967.88 -320.62 967 C-321.67 966.86 -322.73 966.73 -323.81 966.58 C-341.66 964.06 -356.53 957.07 -372 948.13 C-372 947.47 -372 946.81 -372 946.13 C-375.99 947.5 -378.68 949.31 -381.87 952.06 C-386.48 955.92 -391.17 959.61 -396 963.19 C-396.64 963.68 -397.29 964.17 -397.96 964.67 C-402.64 968.13 -402.64 968.13 -406 968.13 C-406 968.79 -406 969.45 -406 970.13 C-408.08 971.63 -408.08 971.63 -410.81 973.25 C-411.7 973.79 -412.6 974.33 -413.52 974.88 C-416 976.13 -416 976.13 -419 976.13 C-419 976.79 -419 977.45 -419 978.13 C-429.23 983.05 -439.44 987.93 -450 992.13 C-450.05 993.33 -450.05 993.33 -450.11 994.56 C-451.49 1018.45 -456.48 1043.44 -469 1064.13 C-469.94 1065.81 -470.88 1067.5 -471.81 1069.19 C-472.54 1070.5 -473.27 1071.81 -474 1073.13 C-474.66 1073.13 -475.32 1073.13 -476 1073.13 C-476 1074.12 -476 1075.11 -476 1076.13 C-476.66 1076.13 -477.32 1076.13 -478 1076.13 C-478.24 1076.85 -478.49 1077.57 -478.75 1078.31 C-480.12 1081.4 -481.72 1083.64 -484 1086.13 C-484.66 1086.13 -485.32 1086.13 -486 1086.13 C-486 1086.79 -486 1087.45 -486 1088.13 C-486.66 1088.13 -487.32 1088.13 -488 1088.13 C-488.4 1089.09 -488.4 1089.09 -488.81 1090.06 C-490 1092.13 -490 1092.13 -493 1093.13 C-493.33 1094.12 -493.66 1095.11 -494 1096.13 C-494.66 1096.13 -495.32 1096.13 -496 1096.13 C-496 1096.79 -496 1097.45 -496 1098.13 C-497.73 1099.57 -499.54 1100.94 -501.37 1102.25 C-502.37 1102.98 -503.37 1103.7 -504.4 1104.45 C-507 1106.13 -507 1106.13 -509 1106.13 C-509 1106.79 -509 1107.45 -509 1108.13 C-510.19 1108.71 -510.19 1108.71 -511.41 1109.3 C-512.47 1109.82 -513.53 1110.34 -514.62 1110.88 C-516.19 1111.64 -516.19 1111.64 -517.79 1112.42 C-518.85 1112.99 -519.91 1113.55 -521 1114.13 C-522.1 1114.69 -523.21 1115.25 -524.35 1115.82 C-527.37 1117.97 -527.37 1117.97 -527.73 1121.88 C-527.76 1123.34 -527.77 1124.8 -527.75 1126.25 C-527.78 1127.79 -527.81 1129.32 -527.86 1130.86 C-527.87 1131.6 -527.89 1132.33 -527.91 1133.09 C-528.06 1136.45 -528.78 1139.62 -529.53 1142.88 C-530.02 1145.26 -530.25 1147.58 -530.43 1150 C-531.47 1161.55 -535.46 1172.54 -540 1183.13 C-540.4 1184.46 -540.79 1185.79 -541.18 1187.13 C-545.91 1201.59 -555.68 1217.09 -566 1228.13 C-566.66 1228.13 -567.32 1228.13 -568 1228.13 C-568.33 1229.12 -568.66 1230.11 -569 1231.13 C-569.66 1231.13 -570.32 1231.13 -571 1231.13 C-571 1231.79 -571 1232.45 -571 1233.13 C-571.66 1233.13 -572.32 1233.13 -573 1233.13 C-573.33 1234.12 -573.66 1235.11 -574 1236.13 C-574.66 1236.13 -575.32 1236.13 -576 1236.13 C-576 1236.79 -576 1237.45 -576 1238.13 C-577.83 1239.77 -579.66 1241.27 -581.62 1242.75 C-582.49 1243.42 -582.49 1243.42 -583.38 1244.09 C-592.22 1250.68 -601.82 1255.92 -612 1260.13 C-613.19 1260.68 -614.39 1261.24 -615.62 1261.81 C-619.13 1263.18 -622.28 1263.64 -626 1264.13 C-626.76 1264.44 -627.52 1264.75 -628.31 1265.06 C-637.75 1268.8 -647.72 1268.47 -657.7 1268.44 C-660.29 1268.44 -662.89 1268.46 -665.48 1268.49 C-675.06 1268.53 -683.74 1267.87 -693 1265.13 C-693.77 1264.92 -694.54 1264.71 -695.33 1264.49 C-703.67 1262.19 -711.4 1259.26 -719 1255.13 C-720.31 1254.52 -721.62 1253.92 -722.93 1253.31 C-728.39 1250.6 -733.15 1246.79 -738 1243.13 C-738.77 1242.59 -739.53 1242.06 -740.32 1241.51 C-740.88 1241.05 -741.43 1240.6 -742 1240.13 C-742 1239.47 -742 1238.81 -742 1238.13 C-742.81 1237.8 -742.81 1237.8 -743.64 1237.47 C-746.81 1235.66 -749.2 1233.21 -751.75 1230.63 C-752.25 1230.13 -752.76 1229.63 -753.28 1229.12 C-757 1225.38 -757 1225.38 -757 1223.13 C-758.32 1223.13 -759.64 1223.13 -761 1223.13 C-760.99 1224.1 -760.97 1225.08 -760.96 1226.08 C-760.95 1227.36 -760.94 1228.63 -760.93 1229.94 C-760.92 1231.2 -760.91 1232.47 -760.9 1233.77 C-761 1237.13 -761 1237.13 -762 1240.13 C-762.19 1241.57 -762.34 1243.03 -762.46 1244.48 C-762.54 1245.33 -762.62 1246.18 -762.7 1247.06 C-762.85 1248.83 -763.01 1250.6 -763.16 1252.37 C-764.66 1268.66 -764.66 1268.66 -770 1275.13 C-770.99 1275.46 -771.98 1275.79 -773 1276.13 C-773 1276.79 -773 1277.45 -773 1278.13 C-773.99 1278.13 -774.98 1278.13 -776 1278.13 C-776 1278.79 -776 1279.45 -776 1280.13 C-792.98 1280.99 -792.98 1280.99 -797.25 1278.25 C-801.99 1273.75 -805.24 1267.31 -805.43 1260.75 C-805.17 1256.26 -804.31 1251.86 -803.5 1247.43 C-802.95 1243.82 -802.7 1240.27 -802.5 1236.63 C-802.01 1228.27 -800.66 1220.24 -798.93 1212.06 C-798.25 1208.76 -797.84 1205.56 -797.62 1202.19 C-797.22 1197.05 -796.22 1192.15 -795.12 1187.13 C-789.5 1164.19 -789.5 1164.19 -792 1141.13 C-792.24 1138.43 -792.42 1135.76 -792.56 1133.06 C-792.6 1132.24 -792.64 1131.42 -792.69 1130.58 C-793.4 1114.83 -793.77 1098.81 -792 1083.13 C-792.91 1083.16 -793.81 1083.2 -794.75 1083.23 C-824.39 1083.87 -853.85 1071.13 -877 1053.13 C-877 1052.47 -877 1051.81 -877 1051.13 C-877.99 1050.8 -878.98 1050.47 -880 1050.13 C-880 1049.47 -880 1048.81 -880 1048.13 C-880.8 1047.82 -880.8 1047.82 -881.62 1047.5 C-884.92 1045.59 -887.59 1043.08 -890 1040.13 C-890 1039.47 -890 1038.81 -890 1038.13 C-890.66 1038.13 -891.32 1038.13 -892 1038.13 C-900.5 1029.15 -907.48 1016.56 -912 1005.13 C-912.64 1003.51 -912.64 1003.51 -913.3 1001.86 C-929.21 959.87 -920.69 914.42 -904 874.13 C-903.35 872.79 -902.69 871.45 -902 870.13 C-901.34 870.13 -900.68 870.13 -900 870.13 C-899.67 869.14 -899.34 868.15 -899 867.13 C-897.44 865.99 -897.44 865.99 -895.56 865 C-894.94 864.67 -894.32 864.34 -893.69 863.99 C-888.82 861.5 -884.11 861.16 -878.8 862.81 C-872.71 865.6 -869.68 869.61 -866 875.13 C-865.18 882.52 -865.35 889.07 -868.79 895.7 C-874.31 906.81 -876.44 919.2 -878.6 931.3 C-879 933.13 -879 933.13 -880 935.13 C-880.14 937.53 -880.23 939.9 -880.27 942.31 C-880.28 943.03 -880.3 943.76 -880.31 944.5 C-880.72 973.78 -876.35 996.15 -855.37 1018 C-853.23 1020.1 -851.08 1021.83 -848.56 1023.44 C-847.71 1024 -846.87 1024.55 -846 1025.13 C-846 1025.79 -846 1026.45 -846 1027.13 C-845.42 1027.23 -844.84 1027.33 -844.25 1027.44 C-842 1028.13 -842 1028.13 -840.18 1029.5 C-837.34 1031.62 -834.26 1032.82 -831 1034.13 C-830.23 1034.45 -829.46 1034.77 -828.67 1035.1 C-815.82 1040.41 -798.62 1045.77 -784.75 1041.42 C-782.32 1039.63 -782.12 1038.11 -781.37 1035.19 C-779.55 1029.16 -776.95 1023.81 -774 1018.25 C-773.57 1017.44 -773.14 1016.64 -772.7 1015.8 C-769.51 1009.86 -765.96 1004.31 -761.87 998.94 C-760.17 996.7 -758.56 994.47 -757 992.13 C-756.34 992.13 -755.68 992.13 -755 992.13 C-754.76 991.56 -754.52 991 -754.28 990.42 C-752.71 987.61 -750.78 985.65 -748.5 983.38 C-747.7 982.58 -746.91 981.78 -746.09 980.96 C-744 979.13 -744 979.13 -742 979.13 C-742 978.47 -742 977.81 -742 977.13 C-739.8 975.39 -737.61 973.78 -735.31 972.19 C-734.68 971.75 -734.06 971.3 -733.41 970.85 C-723.85 964.13 -723.85 964.13 -720 964.13 C-720.01 963.5 -720.03 962.86 -720.04 962.21 C-720.48 941.86 -720.05 921.44 -713 902.13 C-712.67 900.93 -712.34 899.73 -712 898.5 C-709.48 890.02 -706.2 882.28 -702.12 874.44 C-701.71 873.64 -701.3 872.85 -700.88 872.03 C-698.34 867.26 -695.54 863 -692.14 858.8 C-690.77 857.11 -690.77 857.11 -690.87 854.56 C-692.94 850.08 -695.17 846.16 -698.25 842.31 C-700 840.13 -700 840.13 -700 838.13 C-700.66 838.13 -701.32 838.13 -702 838.13 C-704.62 835.75 -704.62 835.75 -707 833.13 C-707 832.47 -707 831.81 -707 831.13 C-707.99 830.8 -708.98 830.47 -710 830.13 C-710 829.47 -710 828.81 -710 828.13 C-710.72 827.88 -711.44 827.63 -712.18 827.38 C-715 826.13 -715 826.13 -717.32 824.24 C-731.52 813.06 -750.54 808.5 -768.18 808.63 C-768.87 808.63 -769.56 808.63 -770.26 808.63 C-781.01 808.7 -790.19 809.51 -800 814.13 C-800.62 814.42 -801.25 814.71 -801.9 815 C-811.11 819.33 -819.02 824.85 -827 831.13 C-831.81 834.33 -836.83 834.09 -842.5 834.19 C-848.73 832.3 -853.43 827.48 -857 822.13 C-857.33 818.76 -857.33 818.76 -857.37 814.81 C-857.4 813.52 -857.43 812.22 -857.46 810.89 C-856.73 804.97 -853.43 800.97 -849 797.13 C-848.34 797.13 -847.68 797.13 -847 797.13 C-847 796.47 -847 795.81 -847 795.13 C-844.44 792.83 -843.52 792.13 -840 792.13 C-840 791.47 -840 790.81 -840 790.13 C-836.86 787.84 -833.38 786.03 -830 784.13 C-828.96 783.53 -827.93 782.93 -826.86 782.32 C-820.48 778.74 -814.27 775.96 -807.26 773.85 C-805.05 773.34 -805.05 773.34 -804 772.13 C-801 771.36 -798.03 770.72 -795 770.13 C-794.37 770 -793.73 769.87 -793.08 769.74 C-759.37 763.09 -726.38 770.36 -697.34 788.81 C-691.71 792.66 -686.47 796.93 -681.25 801.31 C-679.14 803.15 -679.14 803.15 -677 804.13 C-676.9 803.46 -676.8 802.79 -676.7 802.1 C-675.82 798.39 -674.36 795.03 -672.81 791.56 C-672.5 790.86 -672.19 790.15 -671.86 789.43 C-669.51 784.15 -666.96 779 -664.33 773.86 C-663.08 771.29 -662.01 768.73 -661 766.06 C-659.21 761.4 -656.87 757.18 -654.43 752.83 C-653.13 750.37 -652.09 747.98 -651.12 745.38 C-649.24 740.45 -646.8 735.91 -644.28 731.3 C-641.43 726.06 -638.88 720.72 -636.37 715.31 C-633.63 709.42 -630.76 703.79 -627.28 698.28 C-625.16 694.73 -623.57 690.95 -622 687.13 C-621.34 687.13 -620.68 687.13 -620 687.13 C-619.89 686.4 -619.78 685.67 -619.66 684.91 C-618.96 681.96 -617.95 680.1 -616.31 677.56 C-614.09 673.99 -612.12 670.42 -610.31 666.63 C-607.27 660.41 -603.68 654.59 -600.04 648.72 C-595.3 641.05 -590.94 633.23 -587 625.13 C-586.34 625.13 -585.68 625.13 -585 625.13 C-584.87 624.53 -584.75 623.93 -584.62 623.31 C-584 621.13 -584 621.13 -582 618.13 C-587.25 619.97 -592.45 621.82 -597.5 624.19 C-601.67 626.1 -605.89 627.28 -610.32 628.42 C-612.68 629.04 -614.95 629.76 -617.25 630.56 C-621.25 631.93 -625.29 633.08 -629.37 634.19 C-630.56 634.51 -631.74 634.83 -632.96 635.16 C-634.3 635.49 -635.65 635.81 -637 636.13 C-637.75 636.31 -638.5 636.49 -639.28 636.68 C-647.46 638.44 -655.59 638.47 -663.92 638.44 C-666.36 638.44 -668.8 638.46 -671.24 638.49 C-680.55 638.53 -689 637.82 -698 635.13 C-698.71 634.92 -699.42 634.71 -700.15 634.49 C-710.35 631.28 -721.53 626.87 -730 620.13 C-730 619.47 -730 618.81 -730 618.13 C-730.89 617.94 -730.89 617.94 -731.81 617.75 C-734 617.13 -734 617.13 -737 615.13 C-737 614.47 -737 613.81 -737 613.13 C-737.57 612.86 -738.15 612.59 -738.75 612.31 C-741.05 611.1 -743.02 609.82 -745 608.13 C-745 607.47 -745 606.81 -745 606.13 C-745.66 606.13 -746.32 606.13 -747 606.13 C-748.62 604.75 -748.62 604.75 -750 603.13 C-750 602.47 -750 601.81 -750 601.13 C-750.66 601.13 -751.32 601.13 -752 601.13 C-757 595.65 -757 595.65 -757 593.13 C-757.66 593.13 -758.32 593.13 -759 593.13 C-760.5 591.45 -760.5 591.45 -762.12 589.25 C-762.66 588.53 -763.2 587.81 -763.75 587.07 C-765 585.13 -765 585.13 -765 583.13 C-765.66 583.13 -766.32 583.13 -767 583.13 C-768.44 581.14 -768.44 581.14 -770.12 578.38 C-772.68 574.23 -775.31 570.16 -778.06 566.13 C-781.11 561.57 -783.81 556.94 -786.37 552.1 C-788.29 548.6 -790.35 545.21 -792.43 541.81 C-796.03 535.91 -799.21 529.88 -802.25 523.67 C-804.11 519.9 -806.07 516.2 -808.06 512.5 C-810.45 508.06 -812.78 503.6 -815 499.06 C-819.68 489.61 -824.87 480.42 -830.97 471.8 C-832 470.13 -832 470.13 -832 468.13 C-832.99 467.8 -833.98 467.47 -835 467.13 C-835.25 467.96 -835.5 468.8 -835.77 469.65 C-838.91 479.95 -838.91 479.95 -840.62 484.88 C-841.9 488.63 -842.79 492.4 -843.57 496.28 C-844 498.13 -844 498.13 -845 500.13 C-845.2 501.62 -845.36 503.12 -845.5 504.63 C-845.89 508.9 -845.89 508.9 -847 511.13 C-847.36 513.43 -847.69 515.75 -848 518.06 C-848.89 524.8 -848.89 524.8 -850 528.13 C-850.15 530.29 -850.27 532.46 -850.37 534.63 C-850.92 543.01 -852.81 550.39 -856 558.13 C-856.66 558.13 -857.32 558.13 -858 558.13 C-858.24 558.88 -858.48 559.63 -858.74 560.4 C-860.16 563.48 -861.49 564.72 -864.18 566.75 C-864.92 567.32 -865.66 567.89 -866.41 568.48 C-875.34 574.18 -884.72 574.59 -895 573.13 C-899.94 571.54 -903.78 569.13 -908 566.13 C-908.63 565.68 -909.27 565.24 -909.92 564.78 C-918.08 559.03 -925.72 552.85 -932.96 545.99 C-934.86 544.08 -934.86 544.08 -937 543.13 C-937 542.47 -937 541.81 -937 541.13 C-937.99 540.8 -938.98 540.47 -940 540.13 C-940 539.47 -940 538.81 -940 538.13 C-940.66 538.13 -941.32 538.13 -942 538.13 C-942 537.47 -942 536.81 -942 536.13 C-942.99 535.8 -943.98 535.47 -945 535.13 C-945 534.47 -945 533.81 -945 533.13 C-945.66 533.13 -946.32 533.13 -947 533.13 C-952 527.65 -952 527.65 -952 525.13 C-952.66 525.13 -953.32 525.13 -954 525.13 C-955.5 523.45 -955.5 523.45 -957.12 521.25 C-957.66 520.53 -958.2 519.81 -958.75 519.07 C-960 517.13 -960 517.13 -960 515.13 C-960.66 515.13 -961.32 515.13 -962 515.13 C-965 510.74 -965 510.74 -965 508.13 C-965.66 508.13 -966.32 508.13 -967 508.13 C-968.69 505.86 -968.69 505.86 -970.56 502.88 C-971.18 501.9 -971.8 500.93 -972.44 499.92 C-973.76 497.56 -974.54 495.77 -975 493.13 C-975.66 493.13 -976.32 493.13 -977 493.13 C-991.49 464.51 -991.49 464.51 -993 453.13 C-993.66 451.46 -994.32 449.79 -995 448.13 C-998.34 436.33 -998.34 423.33 -998 411.13 C-997.98 410.44 -997.97 409.76 -997.96 409.06 C-997.72 397.76 -996.35 387.96 -993 377.13 C-992.69 375.94 -992.38 374.76 -992.06 373.54 C-990.13 366.23 -987.58 359.57 -984.27 352.77 C-982.92 350.12 -982.92 350.12 -982 347.13 C-981.34 347.13 -980.68 347.13 -980 347.13 C-979.93 346.46 -979.86 345.8 -979.79 345.12 C-978.69 340.98 -976.56 337.82 -974.25 334.25 C-973.82 333.57 -973.39 332.89 -972.94 332.19 C-970.1 327.73 -967.22 323.32 -964 319.13 C-963.34 319.13 -962.68 319.13 -962 319.13 C-961.79 318.45 -961.58 317.77 -961.37 317.06 C-959.57 313.21 -957.1 310.05 -954 307.13 C-953.34 307.13 -952.68 307.13 -952 307.13 C-951.73 306.49 -951.46 305.85 -951.18 305.19 C-950 303.13 -950 303.13 -947 302.13 C-946.67 301.47 -946.34 300.81 -946 300.13 C-945 298.13 -945 298.13 -942 297.13 C-942 296.47 -942 295.81 -942 295.13 C-940.42 293.54 -940.42 293.54 -938.31 291.75 C-937.58 291.13 -936.85 290.52 -936.1 289.88 C-935.41 289.3 -934.71 288.72 -934 288.13 C-933.05 287.32 -932.1 286.52 -931.12 285.69 C-929 284.13 -929 284.13 -927 284.13 C-927 283.47 -927 282.81 -927 282.13 C-925.3 280.74 -925.3 280.74 -922.95 279.16 C-922.1 278.59 -921.26 278.02 -920.39 277.43 C-919.5 276.83 -918.6 276.24 -917.68 275.63 C-916.8 275.03 -915.92 274.44 -915.01 273.83 C-912.68 272.25 -910.34 270.69 -908 269.13 C-907.01 268.47 -906.02 267.81 -905 267.13 C-897.51 265.5 -891.58 266.16 -884.81 269.88 C-879.83 273.86 -877.86 277.34 -877.12 283.63 C-876.8 289.83 -877.76 293.8 -881.56 298.75 C-887.69 305.49 -897.28 313.22 -906 316.13 C-906 316.79 -906 317.45 -906 318.13 C-907.64 319.75 -907.64 319.75 -909.81 321.56 C-912.82 324.1 -912.82 324.1 -915.63 326.85 C-917 328.13 -917 328.13 -919 328.13 C-919 328.79 -919 329.45 -919 330.13 C-919.66 330.13 -920.32 330.13 -921 330.13 C-921.26 330.71 -921.53 331.29 -921.81 331.89 C-923.01 334.15 -924.34 335.93 -926 337.88 C-926.51 338.49 -927.03 339.1 -927.56 339.74 C-929 341.13 -929 341.13 -931 341.13 C-931.26 341.86 -931.53 342.59 -931.8 343.34 C-933 346.13 -934.38 348.25 -936.18 350.69 C-943.72 361.31 -948.68 371.93 -953 384.13 C-953.33 384.92 -953.66 385.72 -954.01 386.54 C-957.49 395.62 -957.25 405.23 -957.12 414.81 C-957.11 416.1 -957.1 417.39 -957.09 418.71 C-957.07 421.85 -957.04 424.99 -957 428.13 C-956.44 427.69 -955.89 427.26 -955.32 426.81 C-954.23 425.98 -954.23 425.98 -953.12 425.13 C-952.04 424.29 -952.04 424.29 -950.94 423.44 C-949 422.13 -949 422.13 -947 422.13 C-947 421.47 -947 420.81 -947 420.13 C-944.94 418.61 -944.94 418.61 -942.12 416.88 C-941.11 416.26 -940.11 415.64 -939.07 415 C-938.05 414.38 -937.04 413.76 -936 413.13 C-934.72 412.31 -934.72 412.31 -933.43 411.47 C-928.3 408.23 -923.26 405.93 -917.51 403.99 C-914.81 403.11 -914.81 403.11 -911.62 401.56 C-892.89 394.14 -869.62 394.37 -851 402.13 C-842.25 406.01 -833.23 410.83 -826 417.13 C-826 417.79 -826 418.45 -826 419.13 C-825.42 419.4 -824.84 419.66 -824.25 419.94 C-821.94 421.16 -819.98 422.43 -818 424.13 C-818 424.79 -818 425.45 -818 426.13 C-817.34 426.13 -816.68 426.13 -816 426.13 C-814.31 427.77 -814.31 427.77 -812.43 429.94 C-811.81 430.65 -811.19 431.35 -810.56 432.08 C-809 434.13 -809 434.13 -808 437.13 C-807.34 437.13 -806.68 437.13 -806 437.13 C-804.55 438.86 -803.19 440.67 -801.87 442.5 C-801.15 443.5 -800.42 444.5 -799.68 445.53 C-798 448.13 -798 448.13 -798 450.13 C-797.34 450.13 -796.68 450.13 -796 450.13 C-795.43 451.13 -794.86 452.14 -794.27 453.18 C-792.48 456.31 -790.63 459.39 -788.75 462.47 C-784.45 469.52 -780.58 476.68 -777 484.13 C-774.57 489.07 -771.92 493.85 -769.2 498.64 C-768 501.13 -768 501.13 -768 504.13 C-767.34 504.13 -766.68 504.13 -766 504.13 C-765.33 505.49 -765.33 505.49 -764.64 506.87 C-764.03 508.1 -763.42 509.33 -762.81 510.56 C-762.52 511.16 -762.23 511.75 -761.92 512.36 C-757.67 520.91 -752.86 529.13 -747.93 537.31 C-747.42 538.18 -746.9 539.04 -746.37 539.93 C-744.2 543.55 -742.02 547.14 -739.63 550.62 C-738 553.13 -738 553.13 -738 555.13 C-737.34 555.13 -736.68 555.13 -736 555.13 C-733 559.51 -733 559.51 -733 562.13 C-732.34 562.13 -731.68 562.13 -731 562.13 C-729.31 563.99 -729.31 563.99 -727.43 566.44 C-726.5 567.64 -726.5 567.64 -725.56 568.87 C-724 571.13 -724 571.13 -723 574.13 C-722.34 574.13 -721.68 574.13 -721 574.13 C-719.37 575.5 -719.37 575.5 -718 577.13 C-718 577.79 -718 578.45 -718 579.13 C-717.17 579.5 -717.17 579.5 -716.33 579.88 C-713.55 581.36 -711.19 583.16 -708.68 585.06 C-704.55 588.12 -700.82 590.41 -696 592.13 C-696 592.79 -696 593.45 -696 594.13 C-694.88 594.27 -693.77 594.42 -692.62 594.56 C-689 595.13 -689 595.13 -687 596.13 C-665.61 600.56 -644.37 597.36 -624 590.13 C-623 589.78 -621.99 589.43 -620.96 589.07 C-601.69 582.42 -601.69 582.42 -583.44 573.46 C-580.98 572.12 -578.55 571.11 -575.93 570.13 C-571.38 568.4 -567.42 566.11 -563.32 563.49 C-559.72 561.38 -556.06 560.03 -552 559.13 C-555.61 546.97 -561.95 534.82 -568.43 523.94 C-570 521.13 -570 521.13 -570 518.13 C-570.66 518.13 -571.32 518.13 -572 518.13 C-572.84 516.69 -573.67 515.26 -574.5 513.81 C-574.96 513.01 -575.42 512.21 -575.9 511.39 C-577 509.13 -577 509.13 -577 506.13 C-577.66 506.13 -578.32 506.13 -579 506.13 C-581.04 503.22 -582 501.73 -582 498.13 C-582.66 498.13 -583.32 498.13 -584 498.13 C-585.28 496.34 -586.47 494.5 -587.62 492.63 C-588.57 491.1 -588.57 491.1 -589.54 489.53 C-590.26 488.34 -590.26 488.34 -591 487.13 C-594.85 487.83 -598.55 488.83 -602.31 489.94 C-607.54 491.45 -612.78 492.9 -618.06 494.25 C-619.27 494.56 -620.48 494.88 -621.72 495.2 C-633.35 497.83 -644.63 498.47 -656.51 498.44 C-659.16 498.44 -661.82 498.46 -664.48 498.49 C-675.95 498.53 -686.75 497.36 -698 495.13 C-699.85 494.79 -701.7 494.46 -703.56 494.13 C-713.81 491.99 -722.82 488.99 -729 480.13 C-731.82 474.73 -731.42 468.93 -730 463.13 C-727.57 458.57 -724.38 454.87 -720 452.13 C-709.88 449.62 -699.38 452.16 -689.65 455.16 C-685.25 456.33 -680.96 456.83 -676.43 457.25 C-675.55 457.34 -674.66 457.42 -673.75 457.5 C-662.88 458.47 -652.35 458.27 -641.5 457.25 C-640.65 457.17 -639.8 457.1 -638.92 457.01 C-634.34 456.54 -630.36 455.69 -626 454.13 C-622.62 454 -622.62 454 -620 454.13 C-620.58 450.74 -621.65 449.11 -624.09 446.71 C-624.71 446.09 -625.33 445.48 -625.96 444.85 C-626.94 443.9 -626.94 443.9 -627.93 442.94 C-628.58 442.3 -629.23 441.66 -629.89 441 C-633.15 437.66 -633.15 437.66 -637 435.13 C-637 434.47 -637 433.81 -637 433.13 C-637.66 433.13 -638.32 433.13 -639 433.13 C-639 432.47 -639 431.81 -639 431.13 C-639.53 430.9 -640.06 430.68 -640.61 430.44 C-643.78 428.7 -646.4 426.41 -649.12 424.06 C-652.83 420.76 -652.83 420.76 -657 418.13 C-657 417.47 -657 416.81 -657 416.13 C-658 415.79 -658 415.79 -659.02 415.44 C-662.86 413.74 -666.16 411.49 -669.62 409.13 C-670.29 408.68 -670.96 408.22 -671.65 407.76 C-672.88 406.92 -674.12 406.08 -675.36 405.24 C-678.49 402.79 -678.49 402.79 -682.25 402.38 C-684.25 402.92 -686.25 403.49 -688.25 404.06 C-691.87 405.09 -695.49 405.91 -699.18 406.66 C-701 406.96 -701 406.96 -702 408.13 C-705.29 408.95 -708.66 409.5 -712 410.13 C-713.23 410.38 -714.46 410.63 -715.73 410.89 C-723.58 412.47 -731.19 413.53 -739.2 413.92 C-742.08 414.02 -742.08 414.02 -745 415.13 C-753.84 416.24 -762.78 416.4 -771.68 416.5 C-772.94 416.54 -774.19 416.58 -775.48 416.62 C-783.16 416.69 -788.89 416.03 -795 411.13 C-799.4 406.57 -800.37 402.44 -800.68 396.13 C-800.47 390.5 -799.55 387.05 -795.9 382.78 C-795.27 382.23 -794.64 381.69 -794 381.13 C-793.21 380.42 -792.42 379.72 -791.61 378.99 C-786.68 375.82 -780.54 376.21 -774.87 375.94 C-772.54 375.8 -770.2 375.66 -767.86 375.52 C-766.15 375.43 -766.15 375.43 -764.41 375.33 C-761.04 375.13 -757.68 374.9 -754.32 374.64 C-753.36 374.56 -752.41 374.49 -751.43 374.41 C-748.86 374.19 -748.86 374.19 -746 373.13 C-746.88 372.84 -747.77 372.55 -748.68 372.25 C-752 371.13 -752 371.13 -754.18 370.15 C-757.84 368.82 -761.48 368.24 -765.31 367.63 C-769.63 366.92 -773.88 366.19 -778.12 365.07 C-781.74 364.19 -785.04 363.77 -788.75 363.56 C-794.65 363.22 -794.65 363.22 -796.84 362.62 C-799.44 362.03 -801.82 361.99 -804.48 361.99 C-805.58 361.98 -806.68 361.97 -807.81 361.96 C-808.99 361.96 -810.17 361.96 -811.39 361.95 C-813.9 361.93 -816.41 361.9 -818.91 361.88 C-822.86 361.84 -826.81 361.81 -830.76 361.8 C-834.58 361.79 -838.39 361.75 -842.2 361.7 C-843.97 361.7 -843.97 361.7 -845.77 361.71 C-852.39 361.61 -856.6 361.06 -862 357.13 C-862 356.47 -862 355.81 -862 355.13 C-862.66 355.13 -863.32 355.13 -864 355.13 C-867.88 349.69 -868.34 344.69 -868 338.13 C-866.87 332.73 -864.09 328.74 -860 325.13 C-854.62 321.64 -849.23 321.33 -843 320.88 C-841.94 320.79 -840.88 320.71 -839.79 320.63 C-830.01 319.96 -820.4 320.29 -810.63 320.96 C-808.04 321.12 -805.44 321.23 -802.84 321.32 C-774.64 322.3 -774.64 322.3 -767 326.13 C-765.74 326.23 -764.48 326.33 -763.18 326.44 C-758.08 326.96 -753.47 328.44 -748.61 330.02 C-744.66 331.23 -740.7 332.23 -736.68 333.19 C-732 334.33 -727.45 335.52 -722.98 337.35 C-720.36 338.38 -717.68 339.21 -715 340.06 C-710.78 341.45 -706.92 343.04 -703 345.12 C-699.12 347.07 -695.04 348.56 -691 350.13 C-689.33 350.79 -687.66 351.46 -686 352.13 C-686 352.79 -686 353.45 -686 354.13 C-684.89 354.31 -684.89 354.31 -683.76 354.49 C-681.05 355.11 -679.2 355.93 -676.81 357.31 C-676.04 357.76 -675.27 358.2 -674.48 358.65 C-671.02 360.71 -667.58 362.79 -664.16 364.89 C-661.93 366.26 -661.93 366.26 -659 367.13 C-659 367.79 -659 368.45 -659 369.13 C-658.45 369.22 -657.91 369.31 -657.35 369.4 C-649.59 371.79 -642.53 378.36 -636.24 383.39 C-632.9 385.98 -629.39 388.31 -625.87 390.65 C-625.25 391.14 -624.63 391.62 -624 392.13 C-624 392.79 -624 393.45 -624 394.13 C-623.38 394.44 -622.76 394.75 -622.12 395.06 C-620.75 395.75 -619.37 396.44 -618 397.13 C-618 397.79 -618 398.45 -618 399.13 C-617.12 399.52 -617.12 399.52 -616.22 399.93 C-613.9 401.18 -612.27 402.54 -610.35 404.36 C-609.67 405 -609 405.63 -608.3 406.29 C-607.6 406.96 -606.9 407.63 -606.18 408.31 C-605.5 408.96 -604.81 409.61 -604.1 410.28 C-602.06 412.22 -600.02 414.17 -598 416.13 C-597.31 416.78 -596.63 417.43 -595.93 418.11 C-595.28 418.73 -594.64 419.35 -593.99 419.99 C-593.41 420.55 -592.83 421.1 -592.24 421.68 C-591 423.13 -591 423.13 -591 425.13 C-590.34 425.13 -589.68 425.13 -589 425.13 C-587.49 426.59 -587.49 426.59 -585.87 428.5 C-585.33 429.13 -584.79 429.75 -584.24 430.4 C-583 432.13 -583 432.13 -583 434.13 C-582.34 434.13 -581.68 434.13 -581 434.13 C-577.77 437.6 -574.91 441.39 -572 445.13 C-571.57 445.68 -571.14 446.23 -570.7 446.79 C-563 456.71 -563 456.71 -563 459.13 C-562.34 459.13 -561.68 459.13 -561 459.13 C-561 460.12 -561 461.11 -561 462.13 C-560.34 462.13 -559.68 462.13 -559 462.13 C-557.59 464.04 -557.59 464.04 -555.93 466.75 C-555.02 468.24 -555.02 468.24 -554.08 469.75 C-553.39 470.86 -552.71 471.98 -552 473.13 C-550.36 475.7 -548.71 478.26 -547.06 480.81 C-546.28 482.03 -545.5 483.24 -544.72 484.45 C-543.87 485.78 -543.87 485.78 -543 487.13 C-542.87 481.01 -543.23 475.33 -544.31 469.31 C-544.45 468.53 -544.58 467.74 -544.72 466.93 C-546.77 455.45 -550.03 444.34 -553.38 433.18 C-553.95 431.27 -554.51 429.35 -555.07 427.43 C-556.65 422.04 -558.33 417.03 -561 412.09 C-562.16 409.8 -563.08 407.46 -564 405.06 C-565.21 401.94 -566.52 399.07 -568.25 396.19 C-570 393.13 -570 393.13 -570 390.13 C-570.66 390.13 -571.32 390.13 -572 390.13 C-572.26 389.4 -572.53 388.67 -572.8 387.92 C-574.34 384.32 -576.49 381.39 -578.75 378.21 C-580 376.13 -580 376.13 -580 373.13 C-580.66 373.13 -581.32 373.13 -582 373.13 C-583.29 371.45 -583.29 371.45 -584.62 369.25 C-585.07 368.53 -585.51 367.81 -585.97 367.07 C-587 365.13 -587 365.13 -587 363.13 C-587.66 363.13 -588.32 363.13 -589 363.13 C-592 358.74 -592 358.74 -592 356.13 C-592.99 355.8 -593.98 355.47 -595 355.13 C-596.97 352.98 -596.97 352.98 -599.06 350.31 C-599.75 349.44 -600.44 348.57 -601.16 347.67 C-602.71 345.53 -603.92 343.53 -605 341.13 C-605.66 341.13 -606.32 341.13 -607 341.13 C-608.44 339.62 -608.44 339.62 -610.12 337.56 C-613.23 333.9 -616.53 330.76 -620.2 327.67 C-621.89 326.21 -623.51 324.8 -625 323.13 C-625 322.47 -625 321.81 -625 321.13 C-625.57 320.86 -626.14 320.59 -626.73 320.31 C-629.08 319.09 -631.12 317.7 -633.25 316.13 C-634.31 315.35 -634.31 315.35 -635.39 314.56 C-635.92 314.09 -636.45 313.62 -637 313.13 C-637 312.47 -637 311.81 -637 311.13 C-637.52 310.89 -638.05 310.66 -638.59 310.42 C-641.78 308.7 -644.6 306.53 -647.5 304.38 C-652.91 300.42 -658.35 297.23 -664.43 294.37 C-666.61 293.31 -668.52 292.2 -670.5 290.81 C-672.77 289.28 -674.32 288.54 -677 288.13 C-677 287.47 -677 286.81 -677 286.13 C-678.32 285.95 -678.32 285.95 -679.67 285.76 C-682.84 285.16 -685.26 284.27 -688.18 282.94 C-700.43 277.71 -713.07 273.97 -726.19 271.77 C-728.18 271.43 -730.17 271.09 -732.14 270.64 C-738.73 269.15 -745.01 268.82 -751.75 268.83 C-752.85 268.82 -753.95 268.82 -755.08 268.81 C-757.4 268.81 -759.72 268.81 -762.03 268.81 C-765.53 268.81 -769.02 268.79 -772.51 268.77 C-792.2 268.14 -792.2 268.14 -811 273.13 C-813.76 273.3 -816.48 273.4 -819.25 273.44 C-820 273.47 -820.75 273.5 -821.52 273.53 C-826.85 273.59 -829.78 272.64 -834 269.13 C-838.43 264.79 -840.81 260.52 -841.1 254.29 C-840.81 248.35 -838.81 243.63 -835 239.13 C-808.74 220.04 -755.61 225.49 -726 230.13 C-713.79 232.28 -701.73 235.1 -690 239.13 C-689.71 238.39 -689.42 237.64 -689.12 236.88 C-688.17 234.54 -687.14 232.31 -686 230.06 C-685.67 229.41 -685.34 228.76 -685 228.09 C-684.67 227.44 -684.34 226.8 -684 226.13 C-683.33 224.79 -682.66 223.46 -682 222.13 C-681.34 222.13 -680.68 222.13 -680 222.13 C-679.89 221.55 -679.79 220.98 -679.68 220.38 C-674.94 204.8 -654.07 190.24 -641 182.13 C-640.22 181.64 -639.45 181.16 -638.66 180.66 C-633.62 177.67 -628.46 175.77 -622.88 174.03 C-620.49 173.28 -618.16 172.44 -615.81 171.56 C-596.26 165.2 -575.86 165.81 -556 170.13 C-555.09 170.29 -554.19 170.46 -553.26 170.63 C-548.62 171.52 -544.59 173.04 -540.31 175.06 C-537.91 176.17 -535.48 177.08 -533 178 C-528.53 179.75 -524.8 182.07 -520.91 184.86 C-518.92 186.3 -518.92 186.3 -516 187.13 C-516 187.79 -516 188.45 -516 189.13 C-515.19 189.5 -515.19 189.5 -514.37 189.88 C-511.41 191.43 -508.7 193.16 -506 195.13 C-506 195.79 -506 196.45 -506 197.13 C-505.36 197.4 -504.72 197.66 -504.06 197.94 C-502 199.13 -502 199.13 -501 202.13 C-500.34 202.46 -499.68 202.79 -499 203.13 C-498.34 203.46 -497.68 203.79 -497 204.13 C-496.67 205.12 -496.34 206.11 -496 207.13 C-495.34 207.13 -494.68 207.13 -494 207.13 C-492.5 209.01 -491.15 210.88 -489.81 212.88 C-489.21 213.76 -489.21 213.76 -488.6 214.67 C-466.14 248.16 -458.51 289.26 -464 329.13 C-464.33 330.12 -464.66 331.11 -465 332.13 C-465.13 333.88 -465.23 335.63 -465.31 337.38 C-465.79 343.65 -467.25 349.46 -468.97 355.49 C-469.85 358.59 -470.56 361.67 -471.25 364.81 C-475.94 383.49 -484.92 401.56 -497.4 416.24 C-499.16 418.24 -499.16 418.24 -501 421.13 C-501.66 421.13 -502.32 421.13 -503 421.13 C-503.34 421.96 -503.34 421.96 -503.68 422.81 C-505 425.13 -505 425.13 -507.62 427.38 C-510.16 430.32 -510.67 431.79 -510.43 435.64 C-509.69 439.9 -508.39 443.97 -507.07 448.08 C-505.45 453.64 -504.8 459.4 -504 465.13 C-503.73 466.99 -503.73 466.99 -503.47 468.89 C-502.93 472.74 -502.4 476.59 -501.87 480.44 C-501.69 481.78 -501.5 483.12 -501.32 484.45 C-500.88 487.68 -500.44 490.9 -500 494.13 C-499.54 493.47 -499.09 492.81 -498.62 492.13 C-498.09 491.47 -497.55 490.81 -497 490.13 C-496.34 490.13 -495.68 490.13 -495 490.13 C-494.72 489.55 -494.44 488.97 -494.16 488.37 C-492.24 484.67 -489.84 481.31 -487.5 477.88 C-487 477.13 -486.5 476.39 -485.99 475.62 C-485.5 474.92 -485.02 474.21 -484.53 473.49 C-483.87 472.52 -483.87 472.52 -483.2 471.53 C-482.8 471.07 -482.41 470.6 -482 470.13 C-481.34 470.13 -480.68 470.13 -480 470.13 C-479.76 469.59 -479.53 469.06 -479.28 468.51 C-477.63 465.45 -475.57 462.79 -473.43 460.06 C-472.99 459.49 -472.55 458.92 -472.09 458.33 C-468.52 453.75 -464.87 449.25 -461.17 444.77 C-458.95 442.07 -456.75 439.35 -454.56 436.63 C-453.6 435.44 -453.6 435.44 -452.63 434.22 C-451.35 432.58 -450.15 430.86 -449 429.13 C-448.34 429.13 -447.68 429.13 -447 429.13 C-446.73 428.55 -446.46 427.98 -446.18 427.39 C-444.96 425.05 -443.57 423 -442 420.88 C-441.22 419.82 -441.22 419.82 -440.43 418.74 C-439.96 418.21 -439.49 417.67 -439 417.13 C-438.34 417.13 -437.68 417.13 -437 417.13 C-436.77 416.41 -436.54 415.68 -436.31 414.94 C-435.04 412.22 -433.74 410.74 -431.56 408.73 C-428.68 405.78 -426.27 402.42 -423.77 399.14 C-423.18 398.47 -422.6 397.81 -422 397.13 C-421.34 397.13 -420.68 397.13 -420 397.13 C-419.67 396.14 -419.34 395.15 -419 394.13 C-418.34 394.13 -417.68 394.13 -417 394.13 C-416.75 393.57 -416.5 393.02 -416.24 392.44 C-414.78 389.72 -413.01 387.47 -411.06 385.06 C-410.37 384.21 -409.68 383.35 -408.97 382.47 C-405.76 378.66 -405.76 378.66 -404 377.13 C-403.34 377.13 -402.68 377.13 -402 377.13 C-401.74 376.54 -401.48 375.96 -401.22 375.35 C-399.89 372.93 -398.43 371.39 -396.43 369.5 C-393.86 367.08 -393.86 367.08 -392 364.13 C-391.34 364.13 -390.68 364.13 -390 364.13 C-389.75 363.55 -389.5 362.98 -389.25 362.38 C-387.8 359.77 -386.09 358.06 -383.93 356 C-381.08 353.35 -381.08 353.35 -379 350.13 C-378.34 350.13 -377.68 350.13 -377 350.13 C-376.75 349.56 -376.51 348.99 -376.26 348.41 C-374.75 345.69 -372.96 343.84 -370.76 341.63 C-369.89 340.75 -369.01 339.87 -368.11 338.97 C-367.16 338.01 -366.2 337.06 -365.25 336.11 C-364.27 335.13 -363.29 334.15 -362.31 333.17 C-360.26 331.12 -358.21 329.07 -356.16 327.03 C-353.52 324.4 -350.89 321.77 -348.27 319.13 C-346.25 317.11 -344.23 315.09 -342.2 313.07 C-341.23 312.1 -340.26 311.13 -339.3 310.15 C-337.95 308.8 -336.59 307.45 -335.23 306.1 C-334.46 305.33 -333.69 304.56 -332.89 303.77 C-331 302.13 -331 302.13 -329 302.13 C-329 301.47 -329 300.81 -329 300.13 C-327.39 298.54 -327.39 298.54 -325.25 296.75 C-322.93 294.79 -320.74 292.87 -318.62 290.69 C-317 289.13 -317 289.13 -315 289.13 C-315 288.47 -315 287.81 -315 287.13 C-313.35 285.51 -313.35 285.51 -311.18 283.69 C-308.17 281.15 -308.17 281.15 -305.36 278.4 C-304 277.13 -304 277.13 -302 277.13 C-302 276.47 -302 275.81 -302 275.13 C-300.62 273.5 -300.62 273.5 -299 272.13 C-298.34 272.13 -297.68 272.13 -297 272.13 C-297 271.47 -297 270.81 -297 270.13 C-295.62 268.5 -295.62 268.5 -294 267.13 C-293.34 267.13 -292.68 267.13 -292 267.13 C-291.75 266.59 -291.5 266.04 -291.25 265.49 C-289.72 262.6 -287.91 260.03 -286 257.38 C-285.3 256.39 -284.59 255.41 -283.87 254.39 C-283.25 253.64 -282.63 252.9 -282 252.13 C-281.34 252.13 -280.68 252.13 -280 252.13 C-279.83 251.26 -279.83 251.26 -279.67 250.38 C-278.91 247.82 -277.8 246.17 -276.25 244 C-271.09 236.44 -267.65 228.7 -264.9 219.98 C-264.36 218.29 -263.8 216.6 -263.19 214.93 C-256.02 195.42 -255.77 173.13 -261 153.13 C-261.33 152.47 -261.66 151.81 -262 151.13 C-262.99 143.6 -261.6 138.15 -257 132.13 C-254.92 129.51 -253.18 128.19 -250 127.13 C-234.79 125.53 -234.79 125.53 -229 130.13 C-229 130.79 -229 131.45 -229 132.13 C-228.01 132.46 -227.02 132.79 -226 133.13 C-216.13 146.94 -217.59 167.62 -217.81 183.69 C-217.82 185.68 -217.84 187.68 -217.85 189.67 C-217.88 194.49 -217.93 199.31 -218 204.13 C-217.01 204.13 -216.02 204.13 -215 204.13 C-215 203.47 -215 202.81 -215 202.13 C-213.26 200.68 -211.46 199.32 -209.62 198 C-208.62 197.28 -207.63 196.55 -206.6 195.81 C-204 194.13 -204 194.13 -202 194.13 C-202 193.47 -202 192.81 -202 192.13 C-200.26 190.68 -198.46 189.32 -196.62 188 C-195.62 187.28 -194.63 186.55 -193.6 185.81 C-191 184.13 -191 184.13 -189 184.13 C-189 183.47 -189 182.81 -189 182.13 C-184.61 179.13 -184.61 179.13 -182 179.13 C-182.01 178.36 -182.03 177.59 -182.05 176.8 C-182.14 168.29 -181.55 160.01 -180.62 151.56 C-180.5 150.34 -180.37 149.12 -180.24 147.86 C-179.19 137.95 -177.9 128.1 -175.43 118.44 C-175.06 116.95 -175.06 116.95 -174.68 115.43 C-174 113.13 -174 113.13 -173 112.13 C-172.84 110.64 -172.84 110.64 -172.68 109.13 C-172.18 105.18 -170.71 102 -169.02 98.42 C-168.09 96.33 -167.4 94.31 -166.75 92.13 C-163.43 81.8 -158.35 70.91 -152 62.13 C-151.34 62.13 -150.68 62.13 -150 62.13 C-149.88 61.53 -149.76 60.94 -149.64 60.33 C-148.62 56.82 -146.28 54.21 -144.06 51.38 C-143.6 50.77 -143.15 50.17 -142.68 49.55 C-141.5 48.04 -140.26 46.58 -139 45.13 C-138.34 45.13 -137.68 45.13 -137 45.13 C-136.75 44.54 -136.5 43.96 -136.25 43.36 C-134.81 40.8 -133.22 39.29 -131 37.38 C-130.3 36.76 -129.59 36.15 -128.87 35.52 C-127 34.13 -127 34.13 -125 34.13 C-125 33.47 -125 32.81 -125 32.13 C-122.82 30.39 -120.65 28.78 -118.37 27.19 C-117.75 26.75 -117.14 26.3 -116.5 25.85 C-106.99 19.13 -106.99 19.13 -102 19.13 C-102 18.47 -102 17.81 -102 17.13 C-101.28 16.87 -100.57 16.62 -99.84 16.36 C-95.62 14.84 -91.46 13.34 -87.37 11.5 C-83.86 10.07 -80.52 9.27 -76.82 8.56 C-74.99 8.29 -74.99 8.29 -74 7.13 C-72.67 6.94 -71.33 6.8 -70 6.69 C-66.88 6.38 -63.96 5.92 -60.93 5.13 C-55.9 3.92 -50.82 3.71 -45.67 3.47 C-42.94 3.34 -40.31 3.19 -37.63 2.63 C-34.78 2.09 -32.08 1.93 -29.18 1.85 C-27.54 1.79 -27.54 1.79 -25.87 1.73 C-23.57 1.66 -21.28 1.59 -18.99 1.52 C-17.9 1.48 -16.81 1.45 -15.68 1.41 C-14.69 1.38 -13.69 1.35 -12.67 1.32 C-10.12 1.23 -10.12 1.23 -8.2 0.62 C-5.42 -0 -2.85 0 0 0 Z M-9.74 40.37 C-11.49 40.46 -11.49 40.46 -13.28 40.56 C-14.36 40.62 -15.44 40.68 -16.55 40.74 C-17.48 40.79 -18.42 40.84 -19.38 40.89 C-21.98 41.13 -24.45 41.59 -27 42.13 C-28.49 42.23 -29.99 42.3 -31.48 42.34 C-60.36 43.23 -87.34 49.22 -108 71.13 C-108.59 71.68 -109.19 72.24 -109.81 72.81 C-111.22 74.08 -111.22 74.08 -111 76.13 C-111.66 76.13 -112.32 76.13 -113 76.13 C-114.69 78.32 -116.23 80.5 -117.75 82.81 C-118.19 83.49 -118.64 84.17 -119.1 84.87 C-123.08 91.01 -126.2 97.37 -129 104.13 C-129.37 105.01 -129.75 105.9 -130.14 106.81 C-135.16 118.88 -138.5 130.98 -138 144.13 C-137.5 143.14 -137.5 143.14 -137 142.13 C-136.3 141.85 -135.6 141.58 -134.88 141.29 C-131.19 139.8 -128.15 137.69 -124.87 135.44 C-123.53 134.53 -122.19 133.63 -120.85 132.72 C-120.19 132.28 -119.54 131.84 -118.86 131.38 C-111.13 126.18 -103.23 121.49 -95 117.13 C-93.25 116.19 -91.5 115.25 -89.75 114.32 C-87.18 112.94 -84.61 111.58 -82.04 110.21 C-79.94 109.1 -77.85 107.98 -75.75 106.86 C-51.56 93.97 -51.56 93.97 -41.55 90.15 C-38.51 88.93 -35.58 87.53 -32.62 86.13 C-27.43 83.7 -22.23 81.79 -16.77 80.06 C-14.21 79.2 -11.82 78.2 -9.37 77.06 C-5.49 75.26 -1.59 74.08 2.52 72.91 C5.79 71.88 8.82 70.47 11.92 69.03 C14.87 67.75 17.9 66.96 21 66.13 C22.46 65.63 23.92 65.13 25.38 64.63 C34.15 61.7 40.57 60.35 49.63 63.31 C54.46 65.91 56.99 69.05 59.38 73.94 C60.52 79.75 59.8 85.85 57 91.13 C56.02 92.15 55.03 93.15 54 94.13 C54 94.79 54 95.45 54 96.13 C53.22 96.37 52.44 96.62 51.63 96.88 C47.91 98.16 44.29 99.62 40.66 101.13 C36.37 102.74 31.96 103.87 27.54 105.06 C21.65 106.66 16.19 108.29 10.83 111.2 C8.22 112.52 5.52 113.34 2.74 114.22 C-6.98 117.43 -16.35 121.08 -25.43 125.81 C-27.63 126.94 -29.83 127.94 -32.12 128.88 C-35.06 129.95 -35.06 129.95 -37 132.13 C-35.71 132.13 -34.41 132.12 -33.08 132.12 C-28.27 132.13 -23.45 132.17 -18.64 132.22 C-16.56 132.24 -14.48 132.25 -12.4 132.25 C-9.4 132.24 -6.4 132.28 -3.4 132.32 C-2.48 132.31 -1.56 132.3 -0.61 132.29 C6.18 132.45 10.13 134.42 15 139.13 C18.93 143.99 18.48 148.77 18.37 154.79 C17.89 159.11 16.84 160.94 14 164.13 C14 164.79 14 165.45 14 166.13 C12.89 166.56 12.89 166.56 11.75 167 C9.11 168.02 9.11 168.02 7.15 169.16 C4.65 170.29 2.61 170.54 -0.12 170.76 C-1.63 170.89 -1.63 170.89 -3.17 171.01 C-4.25 171.09 -5.32 171.17 -6.43 171.25 C-7.56 171.33 -8.68 171.42 -9.84 171.5 C-25.9 172.61 -41.48 172.25 -57.5 170.75 C-58.17 170.69 -58.85 170.63 -59.54 170.56 C-81.47 168.47 -81.47 168.47 -90.37 165.94 C-96.31 164.61 -100.29 165.51 -105.43 168.56 C-107.46 169.79 -107.46 169.79 -109 171.13 C-109 171.79 -109 172.45 -109 173.13 C-109.83 173.27 -109.83 173.27 -110.67 173.42 C-113.6 174.31 -115.68 175.75 -118.18 177.5 C-119.06 178.11 -119.95 178.71 -120.85 179.34 C-123.25 181.02 -123.25 181.02 -124 184.13 C-116.86 187.3 -109.83 190.39 -102.29 192.48 C-99.99 193.13 -97.75 193.89 -95.5 194.69 C-91.38 196.09 -87.25 196.94 -82.97 197.7 C-81 198.13 -81 198.13 -80 199.13 C-68.96 201.71 -58.15 202.61 -46.84 202.52 C-44.5 202.5 -42.16 202.52 -39.81 202.54 C-26.24 202.56 -13.05 200.78 -0.06 196.69 C0.65 196.47 1.36 196.26 2.09 196.03 C7.53 194.34 12.8 192.45 18 190.13 C18.58 189.88 19.17 189.63 19.76 189.37 C36.97 181.91 52.45 171.91 67 160.13 C68.08 159.28 69.16 158.43 70.24 157.58 C74.21 154.45 74.21 154.45 78 151.13 C78 150.47 78 149.81 78 149.13 C78.58 148.87 79.16 148.62 79.76 148.35 C82.23 147 83.9 145.49 85.89 143.5 C86.6 142.8 87.31 142.09 88.04 141.36 C88.77 140.62 89.5 139.89 90.25 139.13 C91 138.39 91.74 137.65 92.51 136.89 C93.21 136.19 93.92 135.48 94.64 134.75 C95.29 134.1 95.93 133.46 96.6 132.79 C98.22 131.24 98.22 131.24 98 129.13 C98.66 129.13 99.32 129.13 100 129.13 C102.05 126.95 102.05 126.95 104.13 124.25 C104.85 123.35 105.58 122.44 106.32 121.51 C108.2 119.34 108.2 119.34 108 117.13 C108.66 117.13 109.32 117.13 110 117.13 C111.59 115.41 111.59 115.41 113.13 113.25 C113.67 112.53 114.21 111.81 114.76 111.07 C116.18 109.23 116.18 109.23 116 107.13 C116.66 107.13 117.32 107.13 118 107.13 C119.41 105.48 119.41 105.48 120.8 103.32 C121.34 102.52 121.89 101.71 122.45 100.88 C123.02 100.01 123.6 99.14 124.19 98.25 C125.36 96.5 126.54 94.76 127.71 93.01 C128.28 92.17 128.85 91.32 129.43 90.45 C131.84 86.89 134.37 83.41 136.93 79.94 C138.26 78.05 138.26 78.05 138 75.13 C138.66 75.13 139.32 75.13 140 75.13 C140.57 74.09 140.57 74.09 141.14 73.04 C143.58 68.56 146.02 64.08 148.5 59.63 C149.1 58.56 149.1 58.56 149.7 57.46 C150.68 55.71 151.66 53.97 152.65 52.23 C153.47 50.76 153.47 50.76 154.32 49.25 C154.83 48.35 155.34 47.44 155.87 46.51 C157.22 44.12 157.22 44.12 157 41.13 C101.24 38.19 46.05 37.4 -9.74 40.37 Z M-611 212.13 C-612.62 212.71 -614.24 213.27 -615.87 213.81 C-629.66 219.34 -640.06 230.99 -648 243.13 C-648.51 243.88 -649.02 244.63 -649.54 245.4 C-652.5 249.8 -652.5 249.8 -653 255.13 C-652.26 255.53 -651.52 255.92 -650.77 256.33 C-649.79 256.86 -648.81 257.39 -647.81 257.94 C-646.85 258.46 -645.88 258.98 -644.89 259.52 C-642.99 260.58 -641.11 261.68 -639.26 262.83 C-637.13 264.31 -637.13 264.31 -634.93 264.06 C-632.39 262.83 -630.82 261.28 -629 259.13 C-629 258.47 -629 257.81 -629 257.13 C-628.34 257.13 -627.68 257.13 -627 257.13 C-627 256.47 -627 255.81 -627 255.13 C-625.51 254.63 -625.51 254.63 -624 254.13 C-624 253.47 -624 252.81 -624 252.13 C-623.21 251.82 -622.43 251.51 -621.62 251.19 C-619.07 250.2 -619.07 250.2 -617 249.13 C-617 248.47 -617 247.81 -617 247.13 C-616.46 247.02 -615.92 246.92 -615.37 246.81 C-612.86 246.17 -612.86 246.17 -610.18 244.69 C-603.59 241.46 -597.28 240.31 -590 241.13 C-586.56 242.56 -586.56 242.56 -584 244.13 C-582.51 244.62 -582.51 244.62 -581 245.13 C-581 245.79 -581 246.45 -581 247.13 C-580.34 247.13 -579.68 247.13 -579 247.13 C-576.97 251.34 -576.67 254.91 -576.62 259.56 C-576.59 260.84 -576.57 262.12 -576.54 263.44 C-577.18 268.6 -579.44 271.57 -583.06 275.19 C-586.65 277.56 -590.4 279.15 -594.38 280.78 C-597.19 282.23 -598.96 283.72 -601 286.13 C-601 286.79 -601 287.45 -601 288.13 C-601.99 288.62 -601.99 288.62 -603 289.13 C-601.37 290.84 -599.7 292.5 -598 294.13 C-597.34 294.13 -596.68 294.13 -596 294.13 C-596 294.79 -596 295.45 -596 296.13 C-594.51 297.63 -594.51 297.63 -592.56 299.19 C-580.22 309.68 -580.22 309.68 -578 314.13 C-577.34 314.13 -576.68 314.13 -576 314.13 C-575.59 314.99 -575.59 314.99 -575.18 315.88 C-573.97 318.18 -572.69 320.15 -571 322.13 C-570.34 322.13 -569.68 322.13 -569 322.13 C-568.75 322.66 -568.5 323.2 -568.25 323.75 C-566.69 326.71 -564.96 329.42 -563 332.13 C-562.34 332.13 -561.68 332.13 -561 332.13 C-560.58 333 -560.58 333 -560.16 333.89 C-559.02 336.08 -557.76 337.99 -556.32 339.99 C-555.8 340.71 -555.28 341.44 -554.75 342.18 C-553.67 343.67 -552.59 345.17 -551.52 346.66 C-548.39 351.04 -545.6 355.43 -543 360.13 C-542.1 361.55 -541.21 362.96 -540.31 364.38 C-535.53 372.26 -531.85 380.77 -528 389.13 C-514.3 375.91 -507.78 354.2 -505.37 335.69 C-505.25 334.76 -505.12 333.83 -504.99 332.88 C-504.65 330.3 -504.32 327.71 -504 325.13 C-503.79 323.59 -503.79 323.59 -503.59 322.03 C-501.37 302.36 -501.26 277.52 -509.94 259.4 C-511.03 257.05 -511.92 254.68 -512.81 252.25 C-518.54 237.94 -528.91 226.15 -542 218.13 C-542.75 217.66 -543.5 217.18 -544.27 216.7 C-548.87 213.97 -553.39 212.2 -558.54 210.8 C-561 210.13 -561 210.13 -563.67 209.11 C-567.39 208.01 -570.82 207.8 -574.67 207.79 C-575.39 207.78 -576.11 207.78 -576.86 207.77 C-578.38 207.76 -579.9 207.76 -581.43 207.76 C-583.73 207.75 -586.03 207.72 -588.32 207.68 C-596.67 207.61 -603.43 208.35 -611 212.13 Z M-57.71 291.27 C-70.64 291.99 -82.63 293.24 -95 297.13 C-96.27 297.43 -97.53 297.74 -98.84 298.05 C-103.34 299.15 -107.62 300.7 -111.93 302.38 C-112.72 302.68 -113.51 302.99 -114.32 303.3 C-119.42 305.34 -123.96 307.64 -128.37 310.96 C-130 312.13 -130 312.13 -133 313.13 C-133 313.79 -133 314.45 -133 315.13 C-133.58 315.39 -134.16 315.66 -134.76 315.94 C-143.16 320.41 -150.8 329.27 -156 337.13 C-156 338.12 -156 339.11 -156 340.13 C-156.66 340.13 -157.32 340.13 -158 340.13 C-158.96 342.36 -159.91 344.59 -160.87 346.81 C-161.14 347.44 -161.41 348.07 -161.69 348.71 C-166.97 361.01 -168.34 371.66 -168.31 385.06 C-168.33 386.35 -168.34 387.63 -168.36 388.95 C-168.36 397.13 -167.37 404.3 -165 412.13 C-164.68 413.28 -164.37 414.42 -164.04 415.61 C-162.19 421.45 -159.98 426.24 -156.36 431.19 C-155.02 433.1 -153.99 435.01 -153 437.13 C-152.34 437.13 -151.68 437.13 -151 437.13 C-150.73 437.7 -150.46 438.28 -150.18 438.88 C-148.97 441.18 -147.69 443.15 -146 445.13 C-145.34 445.13 -144.68 445.13 -144 445.13 C-144 445.79 -144 446.45 -144 447.13 C-140.52 450.76 -140.52 450.76 -136 452.13 C-136 452.79 -136 453.45 -136 454.13 C-134.4 455.37 -134.4 455.37 -132.3 456.55 C-131.11 457.25 -131.11 457.25 -129.9 457.96 C-129.04 458.45 -128.19 458.94 -127.31 459.44 C-126.45 459.94 -125.58 460.43 -124.7 460.94 C-117.97 464.73 -111.31 467.65 -104 470.13 C-102.81 470.64 -102.81 470.64 -101.6 471.15 C-98.34 472.37 -95.11 472.98 -91.68 473.63 C-87.9 474.34 -84.22 475.06 -80.52 476.16 C-74.96 477.55 -69.41 477.43 -63.71 477.43 C-62.54 477.43 -61.36 477.44 -60.15 477.44 C-57.68 477.45 -55.2 477.45 -52.72 477.44 C-48.97 477.44 -45.22 477.46 -41.48 477.49 C-29.26 477.52 -17.84 477.27 -6 474.13 C-4.37 473.8 -2.75 473.49 -1.12 473.19 C2.71 472.32 6.09 470.86 9.64 469.18 C12.14 468.07 14.65 467.23 17.25 466.38 C27.05 462.84 35.33 456.94 43.25 450.31 C44.1 449.61 44.1 449.61 44.95 448.9 C47.52 446.68 48.91 445.41 50 442.13 C50.99 441.8 51.98 441.47 53 441.13 C54.75 438.89 56.33 436.68 57.88 434.31 C58.32 433.64 58.77 432.97 59.23 432.27 C73.43 410.2 74.2 383.65 68.89 358.6 C67.79 354.28 66.25 350.97 64 347.13 C63.7 346.34 63.39 345.56 63.08 344.75 C58.1 332.62 48.7 322.48 38 315.13 C37.34 315.13 36.68 315.13 36 315.13 C36 314.47 36 313.81 36 313.13 C35.01 313.13 34.02 313.13 33 313.13 C33 312.47 33 311.81 33 311.13 C25.81 307.43 18.67 303.81 11.09 300.95 C9 300.13 9 300.13 6.94 299.05 C4.08 297.68 1.13 297.55 -2 297.13 C-4.34 296.49 -6.67 295.82 -9 295.13 C-15.7 293.2 -22.23 292.51 -29.18 292 C-30.31 291.92 -31.43 291.84 -32.59 291.75 C-41.03 291.15 -49.26 290.83 -57.71 291.27 Z M-905 442.13 C-907.33 443.13 -909.66 444.13 -912 445.13 C-914 446.11 -916.01 447.11 -918 448.13 C-918 448.79 -918 449.45 -918 450.13 C-918.71 450.37 -919.42 450.61 -920.16 450.86 C-923.41 452.31 -925.71 454.14 -928.43 456.44 C-929.87 457.65 -929.87 457.65 -931.34 458.88 C-932.65 459.99 -932.65 459.99 -934 461.13 C-935.16 462.07 -936.33 463 -937.5 463.94 C-940.71 466.67 -940.71 466.67 -943 470.13 C-942.45 472.66 -942.45 472.66 -941 475.13 C-940.25 476.52 -940.25 476.52 -939.5 477.94 C-939 478.66 -938.51 479.38 -938 480.13 C-937.34 480.13 -936.68 480.13 -936 480.13 C-935.9 480.68 -935.81 481.23 -935.71 481.8 C-934.81 484.75 -933.33 486.85 -931.56 489.38 C-930.94 490.27 -930.32 491.16 -929.69 492.08 C-929.13 492.76 -928.57 493.43 -928 494.13 C-927.34 494.13 -926.68 494.13 -926 494.13 C-925 496.13 -924 498.13 -923 500.13 C-922.34 500.13 -921.68 500.13 -921 500.13 C-920.74 500.71 -920.49 501.29 -920.22 501.88 C-918.87 504.36 -917.36 506.02 -915.37 508.02 C-914.67 508.73 -913.96 509.44 -913.23 510.17 C-912.49 510.9 -911.76 511.63 -911 512.38 C-910.26 513.12 -909.52 513.87 -908.76 514.63 C-907.7 515.69 -907.7 515.69 -906.62 516.77 C-905.65 517.73 -905.65 517.73 -904.66 518.72 C-903.11 520.34 -903.11 520.34 -901 520.13 C-901 520.79 -901 521.45 -901 522.13 C-899.21 523.41 -897.37 524.6 -895.5 525.75 C-893.97 526.7 -893.97 526.7 -892.4 527.67 C-891.61 528.15 -890.81 528.63 -890 529.13 C-887.85 518.12 -887.85 518.12 -886.56 507 C-886.11 501.4 -884.48 496.11 -882.93 490.74 C-882.02 487.2 -881.49 483.74 -881 480.13 C-880.42 478.04 -880.42 478.04 -879.75 476.19 C-878.7 473.22 -877.71 470.25 -876.79 467.24 C-876.58 466.54 -876.37 465.85 -876.15 465.13 C-875.72 463.74 -875.3 462.36 -874.89 460.97 C-873.88 457.71 -872.8 454.57 -871.42 451.44 C-870.23 448.67 -869.38 446.18 -868.75 443.25 C-868.58 442.49 -868.41 441.73 -868.23 440.95 C-868.15 440.35 -868.08 439.75 -868 439.13 C-875.98 431.15 -896.99 437.56 -905 442.13 Z M-494.96 691.09 C-498.34 692.24 -501.74 693.19 -505.18 694.13 C-509.89 695.45 -514.25 696.97 -518.66 699.06 C-521.54 700.37 -524.47 701.46 -527.43 702.56 C-532.28 704.41 -536.9 706.44 -541.5 708.83 C-543.21 709.72 -544.94 710.58 -546.68 711.42 C-553.02 714.49 -559.16 717.85 -565.25 721.38 C-566.01 721.81 -566.77 722.25 -567.56 722.7 C-569.41 723.78 -571.21 724.95 -573 726.13 C-573 726.79 -573 727.45 -573 728.13 C-573.99 728.13 -574.98 728.13 -576 728.13 C-576 728.79 -576 729.45 -576 730.13 C-576.69 730.36 -577.39 730.6 -578.1 730.85 C-581.52 732.36 -584.35 734.38 -587.31 736.63 C-587.86 737.03 -588.41 737.43 -588.98 737.85 C-590.36 738.89 -591.68 740 -593 741.13 C-593 741.79 -593 742.45 -593 743.13 C-593.58 743.4 -594.16 743.66 -594.76 743.94 C-597.02 745.14 -598.8 746.47 -600.75 748.13 C-601.36 748.64 -601.97 749.16 -602.61 749.69 C-604.23 751.03 -604.23 751.03 -604 753.13 C-604.66 753.13 -605.32 753.13 -606 753.13 C-606 753.79 -606 754.45 -606 755.13 C-606.66 755.13 -607.32 755.13 -608 755.13 C-623.79 770.1 -634.25 798.89 -641 819.13 C-636.49 818.22 -632.09 817.22 -627.75 815.69 C-604.47 807.66 -573.03 805.79 -550.14 816.17 C-547.99 817.13 -545.87 817.82 -543.62 818.5 C-534.99 821.32 -527.1 825.76 -519.74 831.03 C-518.06 832.31 -518.06 832.31 -516 832.13 C-516 832.79 -516 833.45 -516 834.13 C-514.28 835.72 -514.28 835.72 -512.12 837.25 C-511.4 837.79 -510.68 838.33 -509.94 838.88 C-508.1 840.31 -508.1 840.31 -506 840.13 C-506 840.79 -506 841.45 -506 842.13 C-505.34 842.13 -504.68 842.13 -504 842.13 C-504 842.79 -504 843.45 -504 844.13 C-502.66 845.79 -502.66 845.79 -501 847.13 C-500.34 847.13 -499.68 847.13 -499 847.13 C-498.67 848.12 -498.34 849.11 -498 850.13 C-497.34 850.13 -496.68 850.13 -496 850.13 C-495.76 850.66 -495.53 851.2 -495.29 851.75 C-493.62 854.81 -491.48 857.42 -489.31 860.13 C-484.59 866.16 -480.61 872.36 -477 879.13 C-476.67 879.72 -476.35 880.32 -476.02 880.93 C-464.7 902.06 -457.8 925.52 -454 949.13 C-443.35 947.57 -432.73 940.08 -424 934.13 C-423.39 933.71 -422.79 933.3 -422.16 932.88 C-420.2 931.53 -418.26 930.18 -416.31 928.81 C-415.68 928.38 -415.06 927.95 -414.41 927.5 C-412.9 926.43 -411.45 925.28 -410 924.13 C-410 923.47 -410 922.81 -410 922.13 C-409.4 921.86 -408.8 921.59 -408.18 921.31 C-406.01 920.14 -404.69 918.9 -403 917.13 C-403.25 916.62 -403.5 916.11 -403.77 915.59 C-405.84 911.43 -407.92 907.28 -410 903.13 C-410.66 903.13 -411.32 903.13 -412 903.13 C-412.1 902.43 -412.2 901.72 -412.31 901 C-412.89 898.07 -412.89 898.07 -414.38 895.44 C-423.23 877.32 -424.33 855.95 -422.12 836.25 C-422.04 835.55 -421.97 834.85 -421.88 834.13 C-420.94 826.55 -418.52 819.46 -416.12 812.25 C-415.73 811.06 -415.73 811.06 -415.33 809.85 C-413.51 804.45 -411.4 799.3 -409 794.13 C-409 793.47 -409 792.81 -409 792.13 C-408.34 792.13 -407.68 792.13 -407 792.13 C-406.42 790.91 -406.42 790.91 -405.82 789.68 C-405.3 788.61 -404.78 787.54 -404.25 786.44 C-403.48 784.86 -403.48 784.86 -402.7 783.24 C-401 780.13 -401 780.13 -398.79 777.42 C-396.69 775.22 -396.69 775.22 -397 772.13 C-396.34 772.13 -395.68 772.13 -395 772.13 C-393.62 770.16 -392.29 768.15 -391 766.13 C-389.88 764.77 -389.88 764.77 -388.75 763.38 C-386.79 761.34 -386.79 761.34 -387 759.13 C-386.34 759.13 -385.68 759.13 -385 759.13 C-383.41 757.64 -383.41 757.64 -381.87 755.75 C-381.06 754.81 -381.06 754.81 -380.24 753.85 C-378.8 752.21 -378.8 752.21 -379 750.13 C-378.34 750.13 -377.68 750.13 -377 750.13 C-375.36 748.55 -375.36 748.55 -373.68 746.5 C-373.07 745.78 -372.45 745.05 -371.82 744.31 C-370.92 743.23 -370.92 743.23 -370 742.13 C-369.22 741.2 -369.22 741.2 -368.43 740.26 C-367.28 738.89 -366.14 737.51 -365 736.13 C-365.71 735.55 -366.42 734.97 -367.16 734.37 C-368.11 733.59 -369.07 732.81 -370.06 732 C-371 731.24 -371.94 730.47 -372.91 729.68 C-375.09 727.89 -377.22 726.06 -379.34 724.2 C-383.17 720.91 -387.23 718.01 -391.37 715.13 C-392.13 714.6 -392.89 714.07 -393.67 713.53 C-395.14 712.5 -396.62 711.48 -398.1 710.45 C-399.56 709.43 -401 708.39 -402.43 707.33 C-429.47 687.87 -463.34 679.89 -494.96 691.09 Z M-310.77 745.73 C-312.63 746.9 -314.56 747.96 -316.5 749 C-320.56 751.29 -324.04 754.29 -327.64 757.24 C-330 759.13 -330 759.13 -333.31 761.31 C-336.27 763.31 -338.62 765.47 -341 768.13 C-341 768.79 -341 769.45 -341 770.13 C-341.99 770.46 -342.98 770.79 -344 771.13 C-344 771.79 -344 772.45 -344 773.13 C-344.66 773.13 -345.32 773.13 -346 773.13 C-346 773.79 -346 774.45 -346 775.13 C-346.66 775.13 -347.32 775.13 -348 775.13 C-360.78 787.15 -371.39 804.06 -378 820.13 C-378.29 820.83 -378.59 821.54 -378.9 822.27 C-386.4 841.11 -385.76 863.53 -378 882.13 C-373.58 890.89 -367.82 898.12 -361 905.13 C-360.2 905.98 -360.2 905.98 -359.39 906.85 C-358.31 907.99 -357.16 909.07 -356 910.13 C-355.34 910.13 -354.68 910.13 -354 910.13 C-354 910.79 -354 911.45 -354 912.13 C-340.36 922.6 -325.11 927.68 -308.06 927.5 C-306.42 927.52 -306.42 927.52 -304.76 927.54 C-294.63 927.5 -285.38 925.57 -276.23 921.19 C-274.4 920.32 -272.53 919.51 -270.66 918.73 C-261.31 914.75 -252.87 909.39 -245.11 902.87 C-243 901.13 -243 901.13 -239.68 898.94 C-236.72 896.94 -234.38 894.79 -232 892.13 C-232 891.47 -232 890.81 -232 890.13 C-231.01 889.8 -230.02 889.47 -229 889.13 C-229 888.47 -229 887.81 -229 887.13 C-228.34 887.13 -227.68 887.13 -227 887.13 C-227 886.47 -227 885.81 -227 885.13 C-226.01 884.8 -225.02 884.47 -224 884.13 C-224 883.47 -224 882.81 -224 882.13 C-223.34 882.13 -222.68 882.13 -222 882.13 C-218.36 878.65 -218.36 878.65 -217 874.13 C-216.34 874.13 -215.68 874.13 -215 874.13 C-213.71 872.66 -213.71 872.66 -212.47 870.73 C-211.98 870.02 -211.5 869.32 -211.01 868.59 C-210.51 867.84 -210.01 867.09 -209.5 866.31 C-209 865.58 -208.5 864.84 -207.99 864.08 C-206.65 862.1 -205.32 860.11 -204 858.13 C-203.01 856.64 -203.01 856.64 -202 855.13 C-202 854.14 -202 853.15 -202 852.13 C-201.34 852.13 -200.68 852.13 -200 852.13 C-199.59 851.16 -199.18 850.2 -198.75 849.21 C-198.21 847.93 -197.67 846.65 -197.12 845.38 C-196.72 844.43 -196.72 844.43 -196.31 843.46 C-194.15 838.42 -194.15 838.42 -192.9 836.1 C-186.79 822.78 -186.46 800.5 -190.76 786.68 C-197.08 771.31 -197.08 771.31 -207 758.13 C-207.66 758.13 -208.32 758.13 -209 758.13 C-209.33 757.14 -209.66 756.15 -210 755.13 C-210.66 755.13 -211.32 755.13 -212 755.13 C-212 754.47 -212 753.81 -212 753.13 C-212.66 753.13 -213.32 753.13 -214 753.13 C-214 752.47 -214 751.81 -214 751.13 C-216.45 748.86 -219.26 747.03 -222 745.13 C-222.82 744.54 -223.64 743.96 -224.49 743.35 C-250.52 725.69 -284.96 729.52 -310.77 745.73 Z M-636.04 860.89 C-638 862.13 -638 862.13 -641 863.13 C-641 863.79 -641 864.45 -641 865.13 C-641.53 865.37 -642.07 865.62 -642.62 865.88 C-645.58 867.43 -648.29 869.16 -651 871.13 C-651 871.79 -651 872.45 -651 873.13 C-651.66 873.13 -652.32 873.13 -653 873.13 C-655.88 876.29 -658.41 879.73 -661 883.13 C-661.72 884.05 -661.72 884.05 -662.46 885 C-682.94 912.21 -681.27 949.02 -678.29 981.06 C-678.1 983.18 -678.1 983.18 -677 985.13 C-676.65 986.98 -676.35 988.83 -676.06 990.69 C-674.87 998.02 -673.59 1005.01 -670.83 1011.93 C-669.87 1014.46 -669.1 1017.04 -668.31 1019.63 C-664.8 1030.25 -659.47 1040.99 -653 1050.13 C-652.34 1050.13 -651.68 1050.13 -651 1050.13 C-650.87 1050.73 -650.75 1051.32 -650.62 1051.94 C-650.04 1054.39 -650.04 1054.39 -648 1057.13 C-647.34 1057.13 -646.68 1057.13 -646 1057.13 C-645.79 1057.66 -645.58 1058.2 -645.37 1058.75 C-643.46 1062.05 -640.95 1064.72 -638 1067.13 C-637.34 1067.13 -636.68 1067.13 -636 1067.13 C-636 1067.79 -636 1068.45 -636 1069.13 C-619.26 1083.29 -597.98 1090.71 -576 1089.13 C-550.16 1086.6 -528.37 1076.71 -511.25 1056.81 C-506.88 1051.31 -503.92 1045.48 -501 1039.13 C-500.33 1037.84 -499.66 1036.56 -498.99 1035.28 C-489.82 1016.98 -487.65 992.09 -491 972.13 C-491.14 969.65 -491.27 967.17 -491.37 964.69 C-492.33 947.27 -496.91 929.09 -504 913.13 C-504.27 912.46 -504.54 911.78 -504.82 911.09 C-511.63 894.67 -521.57 879.86 -535 868.13 C-535.66 868.13 -536.32 868.13 -537 868.13 C-537 867.47 -537 866.81 -537 866.13 C-564.31 844.54 -606.59 841.46 -636.04 860.89 Z M-723 1014.13 C-727.24 1018.05 -727.24 1018.05 -729 1023.13 C-729.66 1023.13 -730.32 1023.13 -731 1023.13 C-731 1024.12 -731 1025.11 -731 1026.13 C-731.66 1026.13 -732.32 1026.13 -733 1026.13 C-740.85 1039.13 -745.96 1051.81 -749.2 1066.67 C-750 1070.13 -750 1070.13 -751 1072.13 C-753.15 1083.29 -753.31 1094.42 -753.26 1105.75 C-753.25 1108.56 -753.26 1111.36 -753.27 1114.17 C-753.28 1132.01 -751.88 1149.46 -745 1166.13 C-744.63 1167.05 -744.25 1167.98 -743.87 1168.93 C-739.13 1180.57 -733.74 1190.24 -726 1200.13 C-725.45 1200.9 -724.91 1201.68 -724.35 1202.48 C-723.9 1203.02 -723.46 1203.57 -723 1204.13 C-722.34 1204.13 -721.68 1204.13 -721 1204.13 C-720.67 1205.12 -720.34 1206.11 -720 1207.13 C-719.34 1207.13 -718.68 1207.13 -718 1207.13 C-718 1207.79 -718 1208.45 -718 1209.13 C-697.31 1226.64 -672.59 1230.97 -646.18 1228.81 C-639.27 1227.9 -633.34 1225.94 -627 1223.13 C-625.29 1222.48 -623.58 1221.83 -621.87 1221.19 C-617.32 1219.37 -612.81 1217.26 -609 1214.13 C-609 1213.47 -609 1212.81 -609 1212.13 C-608.42 1211.86 -607.84 1211.6 -607.24 1211.33 C-601.14 1208.06 -596.09 1202.63 -592 1197.13 C-592 1196.47 -592 1195.81 -592 1195.13 C-591.34 1195.13 -590.68 1195.13 -590 1195.13 C-584.67 1187.73 -580.36 1179.59 -577 1171.13 C-576.37 1169.57 -576.37 1169.57 -575.72 1167.99 C-571.17 1155.68 -568 1141.29 -568 1128.13 C-568.8 1128.11 -569.6 1128.1 -570.42 1128.08 C-600.04 1127.48 -600.04 1127.48 -612 1124.13 C-613.14 1123.82 -614.28 1123.5 -615.46 1123.18 C-640.01 1116.05 -666.19 1100.25 -680 1078.13 C-687.07 1084.25 -688.39 1091.66 -689.12 1100.63 C-689.27 1102.24 -689.42 1103.86 -689.57 1105.47 C-689.67 1106.63 -689.67 1106.63 -689.78 1107.81 C-690.11 1111.26 -690.55 1114.69 -691 1118.13 C-691.66 1118.13 -692.32 1118.13 -693 1118.13 C-693.41 1118.87 -693.82 1119.61 -694.25 1120.38 C-696.4 1123.75 -698.21 1125.85 -702 1127.13 C-709.05 1127.8 -715.34 1127.66 -722 1125.13 C-722 1124.47 -722 1123.81 -722 1123.13 C-722.66 1123.13 -723.32 1123.13 -724 1123.13 C-724.68 1121.8 -725.34 1120.47 -726 1119.13 C-726.34 1118.44 -726.69 1117.76 -727.05 1117.05 C-728.36 1113.02 -728.3 1109.28 -728.25 1105.06 C-728.24 1104.21 -728.23 1103.36 -728.22 1102.49 C-727.87 1081.95 -721.39 1062.84 -706.64 1048.22 C-703.77 1045.32 -702.13 1043.28 -702 1039.13 C-702.59 1037.11 -702.59 1037.11 -703.68 1035.19 C-706.14 1030.13 -707.56 1024.94 -709.05 1019.53 C-710.22 1015.33 -711.58 1011.24 -713 1007.13 C-717.02 1007.13 -720.22 1011.47 -723 1014.13 Z " fill="#000000" transform="translate(1038.996826171875,-0.126983642578125)"/>
<path d="M0 0 C4.64 2.25 8.17 5.08 10.68 9.63 C12.65 15.78 12.9 23.21 10.08 29.07 C9.55 29.75 9.03 30.44 8.48 31.14 C7.82 31.14 7.16 31.14 6.48 31.14 C6.48 31.8 6.48 32.46 6.48 33.14 C5.82 33.14 5.16 33.14 4.48 33.14 C4.48 33.8 4.48 34.46 4.48 35.14 C2.69 36.12 0.9 37.1 -0.89 38.07 C-2.68 39.06 -2.68 39.06 -3.52 41.14 C-4.18 41.14 -4.84 41.14 -5.52 41.14 C-8.98 49.41 -11.71 57.29 -11.51 66.33 C-11.49 67.5 -11.47 68.68 -11.46 69.89 C-11.41 72.35 -11.36 74.81 -11.3 77.26 C-11.29 78.44 -11.27 79.62 -11.26 80.83 C-11.24 81.9 -11.21 82.96 -11.19 84.06 C-11.78 89.69 -14.3 93.42 -18.58 96.96 C-19.27 97.54 -19.96 98.12 -20.68 98.73 C-25.56 102.49 -31.61 101.76 -37.52 101.14 C-42.86 99.13 -46.26 95.78 -49.52 91.14 C-56.46 72.48 -53.27 49.11 -45.98 31.16 C-43.68 26.42 -40.74 22.29 -37.52 18.14 C-36.99 17.39 -36.47 16.64 -35.93 15.87 C-35.46 15.3 -35 14.73 -34.52 14.14 C-33.86 14.14 -33.2 14.14 -32.52 14.14 C-32.27 13.55 -32.02 12.95 -31.77 12.33 C-30.33 9.83 -28.95 8.66 -26.52 7.14 C-25.86 7.14 -25.2 7.14 -24.52 7.14 C-24.52 6.48 -24.52 5.82 -24.52 5.14 C-16.46 -0.09 -9.5 -3.23 0 0 Z " fill="#000000" transform="translate(436.515625,894.85546875)"/>
<path d="M0 0 C4.59 4.49 6.25 8.02 6.75 14.35 C6.76 19.73 5.61 23.94 2.25 28.19 C1.43 29.01 0.6 29.84 -0.25 30.69 C-0.91 30.69 -1.57 30.69 -2.25 30.69 C-2.25 31.35 -2.25 32.01 -2.25 32.69 C-7.62 34.78 -12.17 35.88 -17.94 36.19 C-27.34 36.79 -32.82 41 -39.25 47.69 C-40.06 49.05 -40.06 49.05 -40.89 50.45 C-41.57 51.56 -41.57 51.56 -42.25 52.69 C-42.91 52.69 -43.57 52.69 -44.25 52.69 C-44.58 54.34 -44.91 55.99 -45.25 57.69 C-45.91 57.69 -46.57 57.69 -47.25 57.69 C-47.33 58.37 -47.41 59.05 -47.5 59.75 C-48.63 64.16 -50.23 68.1 -53.86 70.95 C-59.48 74.28 -64.57 76.35 -71.15 75.3 C-74.91 74.2 -78.28 72.23 -81.25 69.69 C-81.25 69.03 -81.25 68.37 -81.25 67.69 C-81.91 67.69 -82.57 67.69 -83.25 67.69 C-87.26 61.84 -87.37 55.56 -86.25 48.69 C-81.59 34.67 -71.46 21.07 -60.25 11.69 C-59.59 11.69 -58.93 11.69 -58.25 11.69 C-58.25 11.03 -58.25 10.37 -58.25 9.69 C-43.5 -2.35 -17.34 -12.34 0 0 Z " fill="#000000" transform="translate(280.25,850.3125)"/>
<path d="M0 0 C1.05 0.02 2.1 0.03 3.18 0.05 C23.1 0.92 42.11 10.21 55.69 24.75 C59.84 29.71 62.93 35.33 66 41 C66.39 41.63 66.78 42.25 67.18 42.9 C68.42 46.06 68.34 48.99 68.38 52.38 C68.4 53.66 68.43 54.95 68.46 56.27 C67.79 61.69 65.47 64.71 61.44 68.25 C54.99 72.88 49.83 72.82 42 72 C35.7 69.99 32.77 65.78 29.81 60.09 C29 58 29 58 29 55 C28.34 55 27.68 55 27 55 C27 54.01 27 53.02 27 52 C26.34 52 25.68 52 25 52 C25 51.34 25 50.68 25 50 C24.01 49.67 23.02 49.34 22 49 C22 48.34 22 47.68 22 47 C21.46 46.9 20.93 46.79 20.38 46.69 C18 46 18 46 15.25 44.56 C8.99 41.55 3.5 40.93 -3.38 40.62 C-12.23 40.09 -18.87 38.69 -25.06 32.06 C-29.18 27.19 -29.33 22.22 -29 16 C-27.63 9.41 -23.51 4.67 -18 1 C-12.1 -0.57 -6.05 -0.14 0 0 Z " fill="#000000" transform="translate(1000,316)"/>
<path d="M0 0 C1.49 -0.03 1.49 -0.03 3.02 -0.06 C11.73 -0.11 19.44 1.43 27 5.94 C27.75 6.37 28.49 6.81 29.26 7.26 C29.79 7.59 30.33 7.91 30.88 8.25 C30.88 8.91 30.88 9.57 30.88 10.25 C31.87 10.58 32.86 10.91 33.88 11.25 C36.71 16.59 38.84 22.38 37.33 28.43 C36.15 31.71 34.82 34.33 32.88 37.25 C32.22 37.25 31.56 37.25 30.88 37.25 C30.88 37.91 30.88 38.57 30.88 39.25 C26.39 42.42 22.11 44.38 16.56 44.06 C13.69 43.43 11.18 42.68 8.44 41.69 C0.17 38.89 -5.37 40.22 -13.21 43.67 C-16.84 45.64 -19.67 48 -22.6 50.89 C-24.12 52.25 -24.12 52.25 -26.12 52.25 C-26.12 52.91 -26.12 53.57 -26.12 54.25 C-30.28 58.39 -34.87 59.68 -40.62 59.94 C-46.05 59.71 -49.45 58.74 -53.47 55.07 C-58.95 49.04 -60.96 44.5 -60.62 36.17 C-59.89 31.87 -58.18 28.4 -55.12 25.25 C-54.47 25.25 -53.8 25.25 -53.12 25.25 C-53.12 24.59 -53.12 23.93 -53.12 23.25 C-47.65 18.25 -47.65 18.25 -45.12 18.25 C-45.12 17.59 -45.12 16.93 -45.12 16.25 C-32.38 5.75 -16.28 0.08 0 0 Z " fill="#000000" transform="translate(762.125,758.75)"/>
</svg>
