<svg id="eOg1sDfUVAv1" xmlns="http://www.w3.org/2000/svg" xmlns:xlink="http://www.w3.org/1999/xlink" viewBox="0 0 128 128" shape-rendering="geometricPrecision" text-rendering="geometricPrecision"><defs><filter id="eOg1sDfUVAv3-filter" x="-150%" width="400%" y="-150%" height="400%"><feComponentTransfer id="eOg1sDfUVAv3-filter-invert-0" result="result"><feFuncR id="eOg1sDfUVAv3-filter-invert-0-R" type="table" tableValues="1 0"/><feFuncG id="eOg1sDfUVAv3-filter-invert-0-G" type="table" tableValues="1 0"/><feFuncB id="eOg1sDfUVAv3-filter-invert-0-B" type="table" tableValues="1 0"/></feComponentTransfer></filter></defs><rect width="128" height="128" rx="0" ry="0" clip-rule="evenodd" fill="none" fill-rule="evenodd" stroke-linejoin="round" stroke-miterlimit="2"/><g transform="matrix(1.29689 0 0 1.33333-148.4 0.000672)" clip-rule="evenodd" filter="url(#eOg1sDfUVAv3-filter)"><path d="M692.542,138.341c0,4.746,1.944,8.733,4.515,9.257c11.963,2.44,21.071,22.8,21.071,47.137c0,1.941-.057,3.854-.17,5.735-1.075,17.587.877,35.375,5.585,50.848c3.067,10.122,4.801,21.985,4.801,34.642c0,35.389-13.59,64.763-31.127,67.314-2.64.383-4.675,4.426-4.675,9.285v137.483c0,5.144,2.272,9.314,5.076,9.314h241.806c2.803,0,5.076-4.17,5.076-9.314v-399.347c0-5.144-2.273-9.314-5.076-9.314h-241.806c-2.804,0-5.076,4.17-5.076,9.314v37.646Zm10.151-7.716v-20.616c0,0,231.655,0,231.655,0s0,380.719,0,380.719-231.655,0-231.655,0s0-120.066,0-120.066c20.308-7.344,35.803-42.379,35.803-84.702c0-15.967-2.211-30.921-6.085-43.708-.001-.004-.003-.009-.004-.014-3.675-12.08-5.2-25.967-4.359-39.715c0-.008.001-.016.001-.024.152-2.546.231-5.137.231-7.764c0-31.122-10.955-57.059-25.587-64.11Z" transform="matrix(.12153 0 0 0.06442 35.558 46.516)" clip-rule="evenodd" fill-rule="evenodd" stroke-linejoin="round" stroke-miterlimit="2"/><path d="M648.836,187.599c0-2.781-2.272-5.036-5.075-5.036h-138.119c-1.408,0-2.753.58-3.713,1.602L398.241,294.561c-.876.932-1.363,2.159-1.363,3.434v39.568c0,2.782,2.273,5.037,5.076,5.037h241.807c2.803,0,5.075-2.255,5.075-5.037v-149.964Zm-10.151,5.037v139.891c0,0-231.655,0-231.655,0s0-32.549,0-32.549s100.82-107.342,100.82-107.342h130.835Z" transform="matrix(.12153 0 0 0.11913 71.49 12.789)" clip-rule="evenodd" fill-rule="evenodd" stroke-linejoin="round" stroke-miterlimit="2"/><path d="M529.187,377.662c0-1.72-2.541-3.114-5.677-3.114h-81.136c-3.136,0-5.678,1.394-5.678,3.114v85.299c0,1.72,2.542,3.114,5.678,3.114h81.136c3.136,0,5.677-1.394,5.677-3.114v-85.299Zm-11.354,3.114v79.071c0,0-69.782,0-69.782,0s0-79.071,0-79.071h69.782Z" transform="matrix(.10866 0 0 0.19268 88.058-10.478)" clip-rule="evenodd" fill-rule="evenodd" stroke-linejoin="round" stroke-miterlimit="2"/><path d="M531.08,377.662c0-3.296-3.389-5.968-7.57-5.968h-81.136c-4.181,0-7.57,2.672-7.57,5.968v85.299c0,3.296,3.389,5.969,7.57,5.969h81.136c4.181,0,7.57-2.673,7.57-5.969v-85.299Zm-15.139,5.968v73.363c0,0-65.998,0-65.998,0s0-73.363,0-73.363h65.998Z" transform="matrix(.0815 0 0 0.10053 90.525 24.325)" clip-rule="evenodd" fill-rule="evenodd" stroke-linejoin="round" stroke-miterlimit="2"/><path d="M529.187,377.662c0-3.296-2.541-5.968-5.677-5.968h-81.136c-3.136,0-5.678,2.672-5.678,5.968v85.299c0,3.296,2.542,5.969,5.678,5.969h81.136c3.136,0,5.677-2.673,5.677-5.969v-85.299Zm-11.354,5.968v73.363c0,0-69.782,0-69.782,0s0-73.363,0-73.363h69.782Z" transform="matrix(.10866 0 0 0.10053 109.877-1.4)" clip-rule="evenodd" fill-rule="evenodd" stroke-linejoin="round" stroke-miterlimit="2"/><path d="M529.187,377.662c0-3.296-2.541-5.968-5.677-5.968h-81.136c-3.136,0-5.678,2.672-5.678,5.968v85.299c0,3.296,2.542,5.969,5.678,5.969h81.136c3.136,0,5.677-2.673,5.677-5.969v-85.299Zm-11.354,5.968v73.363c0,0-69.782,0-69.782,0s0-73.363,0-73.363h69.782Z" transform="matrix(.10866 0 0 0.10053 141.582-1.4)" clip-rule="evenodd" fill-rule="evenodd" stroke-linejoin="round" stroke-miterlimit="2"/><path d="M648.375,237.726c0-23.147-2.066-41.912-4.614-41.912h-241.807c-2.548,0-4.614,18.765-4.614,41.912v199.674c0,23.148,2.066,41.913,4.614,41.913h241.807c2.548,0,4.614-18.765,4.614-41.913v-199.674Zm-9.229,41.914v115.848c0-.001-232.578-.001-232.578-.001s0-115.848,0-115.848l232.578.001Z" transform="matrix(.13368 0 0 0.01432 63.667 43.882)" clip-rule="evenodd" fill-rule="evenodd" stroke-linejoin="round" stroke-miterlimit="2"/><path d="M648.375,237.726c0-23.147-2.066-41.912-4.614-41.912h-241.807c-2.548,0-4.614,18.765-4.614,41.912v199.674c0,23.148,2.066,41.913,4.614,41.913h241.807c2.548,0,4.614-18.765,4.614-41.913v-199.674Zm-9.229,41.914v115.848c0-.001-232.578-.001-232.578-.001s0-115.848,0-115.848l232.578.001Z" transform="matrix(.13368 0 0 0.01432 95.993 44.597)" clip-rule="evenodd" fill-rule="evenodd" stroke-linejoin="round" stroke-miterlimit="2"/><path d="M648.684,237.726c0-23.147-2.205-41.912-4.923-41.912h-241.807c-2.719,0-4.923,18.765-4.923,41.912v199.674c0,23.148,2.204,41.913,4.923,41.913h241.807c2.718,0,4.923-18.765,4.923-41.913v-199.674Zm-9.846,41.913v115.849c0-.001-231.961-.001-231.961-.001s0-115.848,0-115.848s231.961,0,231.961,0Z" transform="matrix(.1253 0 0 0.01432 131.687 44.597)" clip-rule="evenodd" fill-rule="evenodd" stroke-linejoin="round" stroke-miterlimit="2"/><path d="M916.723,535.779c0-1.921-2.346-3.478-5.24-3.478h-542.966c-2.894,0-5.24,1.557-5.24,3.478v16.567c0,1.921,2.346,3.478,5.24,3.478h542.966c2.894,0,5.24-1.557,5.24-3.478v-16.567Zm-10.48,3.477v9.613c0,0-532.486,0-532.486,0s0-9.613,0-9.613h532.486Z" transform="matrix(.11772 0 0 0.17253 71.817-13.711)" clip-rule="evenodd" fill-rule="evenodd" stroke-linejoin="round" stroke-miterlimit="2"/><path d="M921.56,535.779c0-1.921-4.512-3.478-10.077-3.478h-542.966c-5.565,0-10.077,1.557-10.077,3.478v16.567c0,1.921,4.512,3.478,10.077,3.478h542.966c5.565,0,10.077-1.557,10.077-3.478v-16.567Zm-20.154,3.477v9.613c0,0-522.812,0-522.812,0s0-9.613,0-9.613h522.812Z" transform="matrix(.06122 0 0 0.17253 156.556-13.711)" clip-rule="evenodd" fill-rule="evenodd" stroke-linejoin="round" stroke-miterlimit="2"/><path d="M890.643,131.982c0-2.685-2.273-4.861-5.076-4.861h-241.806c-2.804,0-5.076,2.176-5.076,4.861v156.313c0,2.684,2.272,4.86,5.076,4.86h241.806c2.803,0,5.076-2.176,5.076-4.86v-156.313Zm-10.151,4.861v146.591c-.001,0-231.656,0-231.656,0s0-146.591,0-146.591h231.656Z" transform="matrix(.12153 0 0 0.12343 71.49 12.415)" clip-rule="evenodd" fill-rule="evenodd" stroke-linejoin="round" stroke-miterlimit="2"/><path d="M890.643,131.982c0-2.685-2.273-4.861-5.076-4.861h-241.806c-2.804,0-5.076,2.176-5.076,4.861v156.313c0,2.684,2.272,4.86,5.076,4.86h241.806c2.803,0,5.076-2.176,5.076-4.86v-156.313Zm-10.151,4.861v146.591c-.001,0-231.656,0-231.656,0s0-146.591,0-146.591h231.656ZM521.171,19.979l-.003-.001.003.001c.787.609,1.769.997,2.842,1.064l.631.237c-.961,0-1.901-.261-2.713-.753L638.685,91.239c0,0,0,17.585,0,17.585c0,2.685,2.272,4.861,5.076,4.861h241.806c2.803,0,5.076-2.176,5.076-4.861v-20.262c0-1.667-.892-3.218-2.363-4.109L768.794,12.086c-.812-.491-1.753-.752-2.713-.752h-241.726c-2.803,0-5.075,2.176-5.075,4.861c0,1.529.737,2.894,1.891,3.784Zm20.625,1.077h222.814c.001,0,115.881,70.183,115.881,70.183.001,0,.001,12.725.001,12.725-.001,0-231.656,0-231.656,0s0-15.402,0-15.402c0-1.667-.891-3.218-2.362-4.109L541.796,21.056Zm-15.631,0c-.483.146-.995.224-1.521.224l.116-.224h1.405Z" transform="matrix(.12153 0 0 0.12343 100.878 12.415)" clip-rule="evenodd" fill-rule="evenodd" stroke-linejoin="round" stroke-miterlimit="2"/><path d="M856.311,285.056h-183.294v-82.224c0,0,182.617,0,182.617,0c1.873,0,3.594-.658,4.476-1.712c4.341-5.182,6.091-11.087,5.072-16.937-.065-.644-.126-1.333-.126-2.03c0-8.461,9.109-15.539,21.072-16.387c2.57-.183,4.515-1.569,4.515-3.219v-24.657c0-1.789-2.273-3.238-5.076-3.238h-241.806c-2.804,0-5.076,1.449-5.076,3.238v150.405c0,1.788,2.272,3.238,5.076,3.238h241.806c2.803,0,5.076-1.45,5.076-3.238v-47.797c0-1.689-2.035-3.095-4.675-3.228-8.137-.412-15.445-2.85-20.834-6.614-1.413-.986-3.631-1.318-5.584-.835-1.952.484-3.239,1.683-3.239,3.019v52.216Zm-193.445,0h-14.03c0,0,0-143.928,0-143.928s231.656,0,231.656,0s0,18.737,0,18.737c-14.632,2.451-25.587,11.468-25.587,22.288c0,.868.072,1.724.162,2.57.005.047.012.095.02.142.693,3.927-.213,7.887-2.639,11.49-.001.001-184.507.001-184.507.001-2.803,0-5.075,1.45-5.075,3.238v85.462Zm203.596,0v-45.311l.003.001c4.26,1.715,8.992,2.938,14.027,3.57c0,0,0,41.74,0,41.74h-14.03Z" transform="matrix(.12153 0 0 0.1853 71.49 25.308)" clip-rule="evenodd" fill-rule="evenodd" stroke-linejoin="round" stroke-miterlimit="2"/><path d="M127.719,294.758v-4c0-.463-.377-.839-.84-.839s-.84.376-.84.839v4c0,.464.377.84.84.84s.84-.376.84-.84Z" transform="matrix(.73468 0 0 0.7146 39.972-151.201)" clip-rule="evenodd" fill-rule="evenodd" stroke-linejoin="round" stroke-miterlimit="2"/><path d="M127.719,294.758v-4c0-.463-.377-.839-.84-.839s-.84.376-.84.839v4c0,.464.377.84.84.84s.84-.376.84-.84Z" transform="matrix(.73468 0 0 0.7146 45.85-151.201)" clip-rule="evenodd" fill-rule="evenodd" stroke-linejoin="round" stroke-miterlimit="2"/><path d="M127.719,294.758v-4c0-.463-.377-.839-.84-.839s-.84.376-.84.839v4c0,.464.377.84.84.84s.84-.376.84-.84Z" transform="matrix(.73468 0 0 0.7146 67.667-151.201)" clip-rule="evenodd" fill-rule="evenodd" stroke-linejoin="round" stroke-miterlimit="2"/><path d="M127.719,294.758v-4c0-.618-.377-1.119-.84-1.119s-.84.501-.84,1.119v4c0,.618.377,1.12.84,1.12s.84-.502.84-1.12Z" transform="matrix(.73468 0 0 0.53595 67.667-124.268)" clip-rule="evenodd" fill-rule="evenodd" stroke-linejoin="round" stroke-miterlimit="2"/><path d="M127.719,294.758v-4c0-.618-.377-1.119-.84-1.119s-.84.501-.84,1.119v4c0,.618.377,1.12.84,1.12s.84-.502.84-1.12Z" transform="matrix(.73468 0 0 0.53595 99.373-124.268)" clip-rule="evenodd" fill-rule="evenodd" stroke-linejoin="round" stroke-miterlimit="2"/><path d="M127.719,294.758v-4c0-.463-.377-.839-.84-.839s-.84.376-.84.839v4c0,.464.377.84.84.84s.84-.376.84-.84Z" transform="matrix(.73468 0 0 0.7146 51.727-151.201)" clip-rule="evenodd" fill-rule="evenodd" stroke-linejoin="round" stroke-miterlimit="2"/><path d="M127.719,294.758v-4c0-.463-.377-.839-.84-.839s-.84.376-.84.839v4c0,.464.377.84.84.84s.84-.376.84-.84Z" transform="matrix(.73468 0 0 0.7146 73.545-151.201)" clip-rule="evenodd" fill-rule="evenodd" stroke-linejoin="round" stroke-miterlimit="2"/><path d="M127.719,294.758v-4c0-.618-.377-1.119-.84-1.119s-.84.501-.84,1.119v4c0,.618.377,1.12.84,1.12s.84-.502.84-1.12Z" transform="matrix(.73468 0 0 0.53595 73.545-124.268)" clip-rule="evenodd" fill-rule="evenodd" stroke-linejoin="round" stroke-miterlimit="2"/><path d="M127.719,294.758v-4c0-.618-.377-1.119-.84-1.119s-.84.501-.84,1.119v4c0,.618.377,1.12.84,1.12s.84-.502.84-1.12Z" transform="matrix(.73468 0 0 0.53595 105.25-124.268)" clip-rule="evenodd" fill-rule="evenodd" stroke-linejoin="round" stroke-miterlimit="2"/><path d="M127.719,294.758v-4c0-.463-.377-.839-.84-.839s-.84.376-.84.839v4c0,.464.377.84.84.84s.84-.376.84-.84Z" transform="matrix(.73468 0 0 0.7146 33.36-151.201)" clip-rule="evenodd" fill-rule="evenodd" stroke-linejoin="round" stroke-miterlimit="2"/><path d="M127.719,294.758v-4c0-.463-.377-.839-.84-.839s-.84.376-.84.839v4c0,.464.377.84.84.84s.84-.376.84-.84Z" transform="matrix(.73468 0 0 0.7146 36.666-151.201)" clip-rule="evenodd" fill-rule="evenodd" stroke-linejoin="round" stroke-miterlimit="2"/><path d="M127.719,294.758v-4c0-.154-.377-.28-.84-.28s-.84.126-.84.28v4c0,.155.377.28.84.28s.84-.125.84-.28Z" transform="matrix(.73468 0 0 2.1438 36.666-561.036)" clip-rule="evenodd" fill-rule="evenodd" stroke-linejoin="round" stroke-miterlimit="2"/><path d="M127.719,294.758v-4c0-.463-.377-.839-.84-.839s-.84.376-.84.839v4c0,.464.377.84.84.84s.84-.376.84-.84Z" transform="matrix(.73468 0 0 0.7146 42.91-151.201)" clip-rule="evenodd" fill-rule="evenodd" stroke-linejoin="round" stroke-miterlimit="2"/><path d="M127.719,294.758v-4c0-.463-.377-.839-.84-.839s-.84.376-.84.839v4c0,.464.377.84.84.84s.84-.376.84-.84Z" transform="matrix(.73468 0 0 0.7146 64.729-151.201)" clip-rule="evenodd" fill-rule="evenodd" stroke-linejoin="round" stroke-miterlimit="2"/><path d="M127.719,294.758v-4c0-.618-.377-1.119-.84-1.119s-.84.501-.84,1.119v4c0,.618.377,1.12.84,1.12s.84-.502.84-1.12Z" transform="matrix(.73468 0 0 0.53595 64.729-124.268)" clip-rule="evenodd" fill-rule="evenodd" stroke-linejoin="round" stroke-miterlimit="2"/><path d="M127.719,294.758v-4c0-.618-.377-1.119-.84-1.119s-.84.501-.84,1.119v4c0,.618.377,1.12.84,1.12s.84-.502.84-1.12Z" transform="matrix(.73468 0 0 0.53595 96.434-124.268)" clip-rule="evenodd" fill-rule="evenodd" stroke-linejoin="round" stroke-miterlimit="2"/><path d="M127.719,294.758v-4c0-.463-.377-.839-.84-.839s-.84.376-.84.839v4c0,.464.377.84.84.84s.84-.376.84-.84Z" transform="matrix(.73468 0 0 0.7146 48.788-151.201)" clip-rule="evenodd" fill-rule="evenodd" stroke-linejoin="round" stroke-miterlimit="2"/><path d="M127.719,294.758v-4c0-.463-.377-.839-.84-.839s-.84.376-.84.839v4c0,.464.377.84.84.84s.84-.376.84-.84Z" transform="matrix(.73468 0 0 0.7146 70.606-151.201)" clip-rule="evenodd" fill-rule="evenodd" stroke-linejoin="round" stroke-miterlimit="2"/><path d="M127.719,294.758v-4c0-.618-.377-1.119-.84-1.119s-.84.501-.84,1.119v4c0,.618.377,1.12.84,1.12s.84-.502.84-1.12Z" transform="matrix(.73468 0 0 0.53595 70.606-124.268)" clip-rule="evenodd" fill-rule="evenodd" stroke-linejoin="round" stroke-miterlimit="2"/><path d="M127.719,294.758v-4c0-.618-.377-1.119-.84-1.119s-.84.501-.84,1.119v4c0,.618.377,1.12.84,1.12s.84-.502.84-1.12Z" transform="matrix(.73468 0 0 0.53595 102.311-124.268)" clip-rule="evenodd" fill-rule="evenodd" stroke-linejoin="round" stroke-miterlimit="2"/><path d="M127.719,294.758v-4c0-.168-.377-.305-.84-.305s-.84.137-.84.305v4c0,.169.377.305.84.305s.84-.136.84-.305Z" transform="matrix(.73468 0 0 1.96515 69.137-534.103)" clip-rule="evenodd" fill-rule="evenodd" stroke-linejoin="round" stroke-miterlimit="2"/><path d="M127.719,294.758v-4c0-.168-.377-.305-.84-.305s-.84.137-.84.305v4c0,.169.377.305.84.305s.84-.136.84-.305Z" transform="matrix(.73468 0 0 1.96515 100.842-534.103)" clip-rule="evenodd" fill-rule="evenodd" stroke-linejoin="round" stroke-miterlimit="2"/><path d="M487.624,483.803c0,.241.103.469.283.629.18.159.42.234.658.205.144-.018.29-.027.438-.027c2.188,0,3.931,1.945,3.931,4.303c0,.175-.009.348-.028.517-.178,1.586.145,3.189.924,4.584.507.912.794,1.982.794,3.123c0,3.363-2.501,6.124-5.621,6.124-.157,0-.312-.007-.465-.021-.234-.021-.467.058-.641.217s-.273.384-.273.62v12.392c0,.464.376.84.84.84h40c.464,0,.839-.376.839-.84v-39c0-.464-.375-.84-.839-.84h-40c-.464,0-.84.376-.84.84v6.334Zm1.679,21.131c3.874-.169,7-3.582,7-7.797c0-1.44-.365-2.788-1.006-3.94c0-.001-.001-.001-.001-.002-.608-1.089-.86-2.34-.721-3.58c0-.001,0-.001,0-.002.026-.23.039-.463.039-.7c0-3.209-2.369-5.806-5.311-5.973v-4.631c0,0,38.321,0,38.321,0s0,37.32,0,37.32-38.321,0-38.321,0v-10.695Z" transform="matrix(.73468 0 0 0.7146-179.749-290.341)" clip-rule="evenodd" fill-rule="evenodd" stroke-linejoin="round" stroke-miterlimit="2"/><path d="M521.097,380.776v0l-1.939-4.397c.334-1.08,1.077-1.831,1.939-1.831h-78.723c-1.176,0-2.129,1.394-2.129,3.114v85.299c0,1.72.953,3.114,2.129,3.114h81.136c1.176,0,2.129-1.394,2.129-3.114v-53.328c0-.803-.212-1.576-.593-2.156-2.665-4.063-4.281-9.782-4.281-16.089c0-4.184.711-8.108,1.957-11.484l.304-.924c0,0-1.929,1.796-1.929,1.796v0Zm-3.303,0c-.83,3.284-1.287,6.865-1.287,10.612c0,7.527,1.843,14.378,4.875,19.456-.001-.002-.001,49.003-.001,49.003s-76.879,0-76.879,0s0-79.071,0-79.071h73.292Z" transform="matrix(.28975 0 0 0.19268 24.487-10.478)" clip-rule="evenodd" fill-rule="evenodd" stroke-linejoin="round" stroke-miterlimit="2"/><path d="M1.952,152.981c-.002.002-.003.005-.005.007-.909,1.539-1.433,3.333-1.433,5.249c0,5.76,4.724,10.396,10.484,10.396c5.761,0,10.484-4.636,10.484-10.396c0-1.918-.525-3.714-1.445-5.25-.001-.001-.001-.001-.001-.002-.873-1.451-1.235-3.119-1.036-4.77c0-.001.001-.002.001-.003.036-.306.054-.617.054-.932c0-4.422-3.636-7.971-8.057-7.971s-8.057,3.549-8.057,7.971c0,.299.017.595.038.887.002.017.003.033.005.049.2,1.65-.161,3.316-1.032,4.765Zm2.109,1.084c1.112-1.852,1.573-3.979,1.321-6.086-.015-.221-.03-.458-.03-.699c0-3.142,2.504-5.733,5.646-5.733s5.646,2.591,5.646,5.733c0,.233-.014.462-.04.688-.256,2.113.208,4.249,1.326,6.108.729,1.215,1.141,2.64,1.141,4.161c0,4.481-3.592,8.159-8.073,8.159s-8.072-3.678-8.072-8.159c0-1.523.413-2.949,1.135-4.172v0Z" transform="matrix(.51162 0 0 0.53634 114.318-19.932)" clip-rule="evenodd" fill-rule="evenodd" stroke-linejoin="round" stroke-miterlimit="2"/><path d="M123.719,308.423v-12.665c0-.463-.377-.839-.84-.839s-.84.376-.84.839v12.665c0,.463.377.84.84.84s.84-.377.84-.84Z" transform="matrix(.73468 0 0 0.7146 30.064-150.486)" clip-rule="evenodd" fill-rule="evenodd" stroke-linejoin="round" stroke-miterlimit="2"/><path d="M204.079,308.258v-10.5c0-.211-.377-.383-.84-.383s-.84.172-.84.383v10.5c0,.212.377.383.84.383s.84-.171.84-.383Z" transform="matrix(.73468 0 0 1.56532 29.8-403.794)" clip-rule="evenodd" fill-rule="evenodd" stroke-linejoin="round" stroke-miterlimit="2"/><path d="M647.99,237.726c0-23.147-1.893-41.912-4.229-41.912h-241.807c-2.336,0-4.23,18.765-4.23,41.912v199.674c0,23.148,1.894,41.913,4.23,41.913h241.807c2.336,0,4.229-18.765,4.229-41.913v-199.674Zm-8.459,41.914v115.848c0-.001-233.347-.001-233.347-.001s0-115.848,0-115.848l233.347.001Z" transform="matrix(.14584 0 0 0.01432 88.17 22.444)" clip-rule="evenodd" fill-rule="evenodd" stroke-linejoin="round" stroke-miterlimit="2"/><path d="M648.684,237.726c0-23.147-2.205-41.912-4.923-41.912h-241.807c-2.719,0-4.923,18.765-4.923,41.912v199.674c0,23.148,2.204,41.913,4.923,41.913h241.807c2.718,0,4.923-18.765,4.923-41.913v-199.674Zm-9.846,41.913v115.849c0-.001-231.961-.001-231.961-.001s0-115.848,0-115.848s231.961,0,231.961,0Z" transform="matrix(.1253 0 0 0.01432 131.687 22.444)" clip-rule="evenodd" fill-rule="evenodd" stroke-linejoin="round" stroke-miterlimit="2"/><path d="M166.879,302.598h30c.463,0,.84-.376.84-.84c0-.463-.377-.839-.84-.839h-30c-.463,0-.84.376-.84.839c0,.464.377.84.84.84Z" transform="matrix(.73468 0 0 0.7146 30.064-150.486)" clip-rule="evenodd" fill-rule="evenodd" stroke-linejoin="round" stroke-miterlimit="2"/><path d="M166.879,302.619h30c.445,0,.807-.386.807-.861s-.362-.86-.807-.86h-30c-.445,0-.807.385-.807.86s.362.861.807.861Z" transform="matrix(.76477 0 0 0.69738 25.043-142.43)" clip-rule="evenodd" fill-rule="evenodd" stroke-linejoin="round" stroke-miterlimit="2"/><path d="M166.879,302.598h30c.435,0,.787-.376.787-.84c0-.463-.352-.839-.787-.839h-30c-.434,0-.787.376-.787.839c0,.464.353.84.787.84Z" transform="matrix(.78366 0 0 0.7146 21.89-144.769)" clip-rule="evenodd" fill-rule="evenodd" stroke-linejoin="round" stroke-miterlimit="2"/><path d="M166.879,302.598h30c.435,0,.787-.376.787-.84c0-.463-.352-.839-.787-.839h-30c-.434,0-.787.376-.787.839c0,.464.353.84.787.84Z" transform="matrix(.78366 0 0 0.7146 21.89-141.911)" clip-rule="evenodd" fill-rule="evenodd" stroke-linejoin="round" stroke-miterlimit="2"/><path d="M1.952,152.981c-.002.002-.003.005-.005.007-.909,1.539-1.433,3.333-1.433,5.249c0,5.76,4.724,10.396,10.484,10.396c5.761,0,10.484-4.636,10.484-10.396c0-1.918-.525-3.714-1.445-5.25-.001-.001-.001-.001-.001-.002-.873-1.451-1.235-3.119-1.036-4.77c0-.001.001-.002.001-.003.036-.306.054-.617.054-.932c0-4.422-3.636-7.971-8.057-7.971s-8.057,3.549-8.057,7.971c0,.299.017.595.038.887.002.017.003.033.005.049.2,1.65-.161,3.316-1.032,4.765Zm2.109,1.084c1.112-1.852,1.573-3.979,1.321-6.086-.015-.221-.03-.458-.03-.699c0-3.142,2.504-5.733,5.646-5.733s5.646,2.591,5.646,5.733c0,.233-.014.462-.04.688-.256,2.113.208,4.249,1.326,6.108.729,1.215,1.141,2.64,1.141,4.161c0,4.481-3.592,8.159-8.073,8.159s-8.072-3.678-8.072-8.159c0-1.523.413-2.949,1.135-4.172v0Z" transform="matrix(.51162 0 0 0.53634 173.884-19.956)" clip-rule="evenodd" fill-rule="evenodd" stroke-linejoin="round" stroke-miterlimit="2"/><path d="M638.685,108.824c0,2.685,2.272,4.861,5.076,4.861h241.806c2.803,0,5.076-2.176,5.076-4.861v-20.262c0-1.667-.892-3.218-2.363-4.109L768.794,12.086c-1.641-.993-3.729-1.004-5.381-.027L641.093,84.426c-1.497.886-2.408,2.451-2.408,4.136v20.262Zm10.151-4.86v-12.691c0,0,117.213-69.346,117.213-69.346s114.442,69.312,114.442,69.312c.001,0,.001,12.725.001,12.725h-231.656Z" transform="matrix(.12153 0 0 0.12343 71.49 12.415)" clip-rule="evenodd" fill-rule="evenodd" stroke-linejoin="round" stroke-miterlimit="2"/></g></svg>
